<?xml version="1.0" encoding="UTF-8" standalone="no"?>
<!-- Created with Inkscape (http://www.inkscape.org/) -->

<svg
   width="60.959999mm"
   height="128.5mm"
   viewBox="0 0 60.960004 128.50002"
   version="1.1"
   id="svg8"
   inkscape:version="1.1.1 (3bf5ae0d25, 2021-09-20)"
   sodipodi:docname="TemporalAnnihilator.svg"
   xmlns:inkscape="http://www.inkscape.org/namespaces/inkscape"
   xmlns:sodipodi="http://sodipodi.sourceforge.net/DTD/sodipodi-0.dtd"
   xmlns="http://www.w3.org/2000/svg"
   xmlns:svg="http://www.w3.org/2000/svg"
   xmlns:rdf="http://www.w3.org/1999/02/22-rdf-syntax-ns#"
   xmlns:cc="http://creativecommons.org/ns#"
   xmlns:dc="http://purl.org/dc/elements/1.1/">
  <defs
     id="defs2" />
  <sodipodi:namedview
     id="base"
     pagecolor="#ffffff"
     bordercolor="#666666"
     borderopacity="1.0"
     inkscape:pageopacity="0.0"
     inkscape:pageshadow="2"
     inkscape:zoom="2"
     inkscape:cx="110"
     inkscape:cy="247.25"
     inkscape:document-units="mm"
     inkscape:current-layer="layer1"
     showgrid="false"
     units="mm"
     inkscape:snap-bbox="true"
     inkscape:snap-page="true"
     inkscape:bbox-nodes="false"
     inkscape:snap-bbox-edge-midpoints="false"
     inkscape:window-width="1920"
     inkscape:window-height="1057"
     inkscape:window-x="-8"
     inkscape:window-y="-8"
     inkscape:window-maximized="1"
     inkscape:snap-bbox-midpoints="true"
     inkscape:snap-nodes="false"
     inkscape:pagecheckerboard="0"
     width="60.96mm" />
  <metadata
     id="metadata5">
    <rdf:RDF>
      <cc:Work
         rdf:about="">
        <dc:format>image/svg+xml</dc:format>
        <dc:type
           rdf:resource="http://purl.org/dc/dcmitype/StillImage" />
      </cc:Work>
    </rdf:RDF>
  </metadata>
  <g
     inkscape:label="Layer 1"
     inkscape:groupmode="layer"
     id="layer1"
     transform="translate(0,-168.49998)">
    <path
       id="rect420"
       style="display:inline;opacity:1;vector-effect:none;fill:#e6e6e6;fill-rule:evenodd;stroke-width:0.649358"
       d="m 0,168.49997 h 30.48 v 128.5 H 0 Z" />
    <path
       id="rect420-4"
       style="display:inline;vector-effect:none;fill:#e6e6e6;fill-rule:evenodd;stroke-width:0.918331"
       d="m 0,168.49997 h 60.959999 v 128.5 H 0 Z" />
    <g
       aria-label="Temporal Annihilator"
       id="text25970"
       style="font-size:4.23333px;line-height:1.25;-inkscape-font-specification:'sans-serif, Normal';stroke-width:0.264583">
      <path
         d="M 11.011809,176.04439 H 9.9121354 v 2.71405 h -0.409277 v -2.71405 H 8.4031849 v -0.3638 h 2.6086241 z"
         id="path526" />
      <path
         d="m 12.872159,177.6443 h -1.701187 q 0,0.2129 0.06408,0.37207 0.06408,0.15709 0.1757,0.25838 0.107486,0.0992 0.254247,0.14883 0.148828,0.0496 0.326595,0.0496 0.235645,0 0.473356,-0.093 0.239778,-0.0951 0.341064,-0.18604 h 0.02067 v 0.42375 q -0.196371,0.0827 -0.401009,0.13849 -0.204639,0.0558 -0.429948,0.0558 -0.574641,0 -0.897102,-0.31006 -0.32246,-0.31212 -0.32246,-0.8847 0,-0.56637 0.307991,-0.89917 0.310058,-0.33279 0.81442,-0.33279 0.467154,0 0.719335,0.27285 0.254248,0.27285 0.254248,0.77515 z m -0.378271,-0.29766 q -0.0021,-0.30593 -0.155029,-0.47336 -0.150896,-0.16743 -0.460954,-0.16743 -0.312125,0 -0.49816,0.18397 -0.183968,0.18397 -0.208773,0.45682 z"
         id="path528" />
      <path
         d="m 16.83057,178.75844 h -0.388607 v -1.31465 q 0,-0.14883 -0.01447,-0.28732 -0.0124,-0.13849 -0.05581,-0.22117 -0.04754,-0.0889 -0.136426,-0.13436 -0.08888,-0.0455 -0.256315,-0.0455 -0.163297,0 -0.326595,0.0827 -0.163297,0.0806 -0.326595,0.20671 0.0062,0.0475 0.01034,0.11162 0.0041,0.062 0.0041,0.12402 v 1.47795 h -0.388607 v -1.31465 q 0,-0.15296 -0.01447,-0.28939 -0.0124,-0.13849 -0.05581,-0.22117 -0.04754,-0.0889 -0.136426,-0.13229 -0.08888,-0.0455 -0.256315,-0.0455 -0.159163,0 -0.320394,0.0786 -0.159163,0.0786 -0.318326,0.2005 v 1.72393 h -0.388607 v -2.3089 h 0.388607 v 0.25631 q 0.181901,-0.15089 0.361735,-0.23564 0.1819,-0.0848 0.386539,-0.0848 0.235644,0 0.398942,0.0992 0.165364,0.0992 0.245979,0.27492 0.235645,-0.19844 0.429948,-0.28526 0.194303,-0.0889 0.415478,-0.0889 0.380338,0 0.560172,0.23151 0.181901,0.22944 0.181901,0.64285 z"
         id="path530" />
      <path
         d="m 19.61076,177.57608 q 0,0.28112 -0.08061,0.5147 -0.08062,0.23151 -0.227377,0.39274 -0.136425,0.15296 -0.32246,0.23771 -0.183968,0.0827 -0.390674,0.0827 -0.179834,0 -0.326595,-0.0393 -0.144693,-0.0393 -0.295588,-0.12196 v 0.96738 h -0.388607 v -3.16052 h 0.388607 v 0.24184 q 0.155029,-0.13022 0.347265,-0.21704 0.194303,-0.0889 0.413411,-0.0889 0.417545,0 0.649055,0.31626 0.233578,0.31419 0.233578,0.87436 z m -0.401009,0.0103 q 0,-0.41755 -0.142627,-0.62425 -0.142627,-0.20671 -0.438216,-0.20671 -0.167431,0 -0.33693,0.0724 -0.169498,0.0724 -0.324527,0.19017 v 1.30844 q 0.165364,0.0744 0.283186,0.10129 0.119889,0.0269 0.270784,0.0269 0.324528,0 0.506429,-0.21911 0.181901,-0.2191 0.181901,-0.64905 z"
         id="path532" />
      <path
         d="m 22.184244,177.60502 q 0,0.56431 -0.289388,0.8909 -0.289388,0.3266 -0.775146,0.3266 -0.489892,0 -0.77928,-0.3266 -0.287321,-0.32659 -0.287321,-0.8909 0,-0.56431 0.287321,-0.8909 0.289388,-0.32866 0.77928,-0.32866 0.485758,0 0.775146,0.32866 0.289388,0.32659 0.289388,0.8909 z m -0.401009,0 q 0,-0.44855 -0.1757,-0.66559 -0.1757,-0.21911 -0.487825,-0.21911 -0.316259,0 -0.491959,0.21911 -0.173633,0.21704 -0.173633,0.66559 0,0.43408 0.1757,0.65939 0.1757,0.22324 0.489892,0.22324 0.310058,0 0.485758,-0.22117 0.177767,-0.22324 0.177767,-0.66146 z"
         id="path534" />
      <path
         d="m 24.226495,176.87328 h -0.02067 q -0.08682,-0.0207 -0.169498,-0.0289 -0.08061,-0.0103 -0.192236,-0.0103 -0.179834,0 -0.347266,0.0806 -0.167431,0.0785 -0.32246,0.20464 v 1.63918 h -0.388607 v -2.3089 h 0.388607 v 0.34106 q 0.23151,-0.18603 0.407209,-0.26251 0.177767,-0.0785 0.361735,-0.0785 0.101286,0 0.146761,0.006 0.04547,0.004 0.136426,0.0186 z"
         id="path536" />
      <path
         d="m 26.312154,178.75844 h -0.386539 v -0.24598 q -0.05168,0.0351 -0.14056,0.0992 -0.08682,0.062 -0.169498,0.0992 -0.09715,0.0475 -0.223242,0.0785 -0.126091,0.0331 -0.295589,0.0331 -0.312126,0 -0.529167,-0.20671 -0.21704,-0.2067 -0.21704,-0.5271 0,-0.26251 0.111621,-0.42374 0.113688,-0.1633 0.32246,-0.25632 0.21084,-0.093 0.506429,-0.12609 0.295589,-0.0331 0.634586,-0.0496 v -0.0599 q 0,-0.1323 -0.04754,-0.21911 -0.04548,-0.0868 -0.132292,-0.13643 -0.08268,-0.0475 -0.198437,-0.0641 -0.115755,-0.0165 -0.241846,-0.0165 -0.152962,0 -0.341064,0.0413 -0.188102,0.0393 -0.388606,0.11575 h -0.02067 v -0.3948 q 0.113688,-0.031 0.328662,-0.0682 0.214974,-0.0372 0.423746,-0.0372 0.243913,0 0.423747,0.0413 0.181901,0.0393 0.314192,0.13642 0.130225,0.0951 0.198437,0.24598 0.06821,0.1509 0.06821,0.37414 z M 25.925615,178.19 v -0.64286 q -0.177767,0.0103 -0.419612,0.031 -0.239779,0.0207 -0.380339,0.0599 -0.167431,0.0476 -0.270784,0.14883 -0.103353,0.0992 -0.103353,0.27492 0,0.19844 0.11989,0.29972 0.119889,0.0992 0.365868,0.0992 0.204639,0 0.374137,-0.0786 0.169499,-0.0806 0.314193,-0.19223 z"
         id="path538" />
      <path
         d="m 27.453168,178.75844 h -0.388606 v -3.21634 h 0.388606 z"
         id="path540" />
      <path
         d="m 32.168122,178.75844 h -0.436149 l -0.30179,-0.85783 h -1.331184 l -0.30179,0.85783 h -0.415478 l 1.120344,-3.07785 h 0.545703 z m -0.864029,-1.20923 -0.539502,-1.51102 -0.541568,1.51102 z"
         id="path542" />
      <path
         d="m 34.534902,178.75844 h -0.388607 v -1.31465 q 0,-0.15916 -0.0186,-0.29766 -0.0186,-0.14055 -0.06821,-0.2191 -0.05168,-0.0868 -0.148828,-0.12816 -0.09715,-0.0434 -0.252181,-0.0434 -0.159163,0 -0.332796,0.0786 -0.173632,0.0786 -0.332796,0.2005 v 1.72393 h -0.388606 v -2.3089 h 0.388606 v 0.25631 q 0.181901,-0.15089 0.376204,-0.23564 0.194304,-0.0848 0.398942,-0.0848 0.374137,0 0.570507,0.22531 0.196371,0.22531 0.196371,0.64905 z"
         id="path544" />
      <path
         d="m 37.213805,178.75844 h -0.388606 v -1.31465 q 0,-0.15916 -0.0186,-0.29766 -0.0186,-0.14055 -0.06821,-0.2191 -0.05168,-0.0868 -0.148828,-0.12816 -0.09715,-0.0434 -0.252181,-0.0434 -0.159163,0 -0.332796,0.0786 -0.173633,0.0786 -0.332796,0.2005 v 1.72393 h -0.388607 v -2.3089 h 0.388607 v 0.25631 q 0.181901,-0.15089 0.376204,-0.23564 0.194303,-0.0848 0.398942,-0.0848 0.374137,0 0.570507,0.22531 0.19637,0.22531 0.19637,0.64905 z"
         id="path546" />
      <path
         d="m 38.379624,176.063 h -0.438216 v -0.40308 h 0.438216 z m -0.0248,2.69544 h -0.388607 v -2.3089 h 0.388607 z"
         id="path548" />
      <path
         d="m 41.054395,178.75844 h -0.388607 v -1.31465 q 0,-0.15916 -0.0186,-0.29766 -0.0186,-0.14055 -0.06821,-0.2191 -0.05168,-0.0868 -0.148828,-0.12816 -0.09715,-0.0434 -0.252181,-0.0434 -0.159163,0 -0.332796,0.0786 -0.173632,0.0786 -0.332796,0.2005 v 1.72393 h -0.388606 v -3.21634 h 0.388606 v 1.16375 q 0.181901,-0.15089 0.376205,-0.23564 0.194303,-0.0848 0.398941,-0.0848 0.374137,0 0.570508,0.22531 0.19637,0.22531 0.19637,0.64905 z"
         id="path550" />
      <path
         d="m 42.220214,176.063 h -0.438216 v -0.40308 h 0.438216 z m -0.02481,2.69544 h -0.388606 v -2.3089 h 0.388606 z"
         id="path552" />
      <path
         d="m 43.357095,178.75844 h -0.388606 v -3.21634 h 0.388606 z"
         id="path554" />
      <path
         d="m 45.920245,178.75844 h -0.38654 v -0.24598 q -0.05168,0.0351 -0.140559,0.0992 -0.08682,0.062 -0.169499,0.0992 -0.09715,0.0475 -0.223242,0.0785 -0.12609,0.0331 -0.295589,0.0331 -0.312125,0 -0.529166,-0.20671 -0.217041,-0.2067 -0.217041,-0.5271 0,-0.26251 0.111621,-0.42374 0.113688,-0.1633 0.322461,-0.25632 0.210839,-0.093 0.506428,-0.12609 0.295589,-0.0331 0.634586,-0.0496 v -0.0599 q 0,-0.1323 -0.04754,-0.21911 -0.04547,-0.0868 -0.132292,-0.13643 -0.08268,-0.0475 -0.198437,-0.0641 -0.115755,-0.0165 -0.241845,-0.0165 -0.152962,0 -0.341065,0.0413 -0.188102,0.0393 -0.388606,0.11575 h -0.02067 v -0.3948 q 0.113689,-0.031 0.328662,-0.0682 0.214974,-0.0372 0.423747,-0.0372 0.243912,0 0.423746,0.0413 0.181901,0.0393 0.314193,0.13642 0.130224,0.0951 0.198437,0.24598 0.06821,0.1509 0.06821,0.37414 z M 45.533705,178.19 v -0.64286 q -0.177766,0.0103 -0.419612,0.031 -0.239778,0.0207 -0.380338,0.0599 -0.167432,0.0476 -0.270784,0.14883 -0.103353,0.0992 -0.103353,0.27492 0,0.19844 0.119889,0.29972 0.119889,0.0992 0.365869,0.0992 0.204638,0 0.374137,-0.0786 0.169498,-0.0806 0.314192,-0.19223 z"
         id="path556" />
      <path
         d="m 47.867409,178.73777 q -0.109554,0.0289 -0.239778,0.0475 -0.128158,0.0186 -0.229443,0.0186 -0.353467,0 -0.537435,-0.19017 -0.183968,-0.19016 -0.183968,-0.60978 v -1.22783 h -0.262516 v -0.32659 h 0.262516 v -0.66353 h 0.388607 v 0.66353 h 0.802017 v 0.32659 h -0.802017 v 1.05213 q 0,0.1819 0.0083,0.28526 0.0083,0.10128 0.05788,0.19017 0.04548,0.0827 0.124023,0.12195 0.08062,0.0372 0.243912,0.0372 0.09508,0 0.198438,-0.0269 0.103353,-0.0289 0.148828,-0.0475 h 0.02067 z"
         id="path558" />
      <path
         d="m 50.304468,177.60502 q 0,0.56431 -0.289388,0.8909 -0.289388,0.3266 -0.775146,0.3266 -0.489892,0 -0.77928,-0.3266 -0.287321,-0.32659 -0.287321,-0.8909 0,-0.56431 0.287321,-0.8909 0.289388,-0.32866 0.77928,-0.32866 0.485758,0 0.775146,0.32866 0.289388,0.32659 0.289388,0.8909 z m -0.401009,0 q 0,-0.44855 -0.1757,-0.66559 -0.1757,-0.21911 -0.487825,-0.21911 -0.316259,0 -0.491959,0.21911 -0.173633,0.21704 -0.173633,0.66559 0,0.43408 0.1757,0.65939 0.1757,0.22324 0.489892,0.22324 0.310058,0 0.485758,-0.22117 0.177767,-0.22324 0.177767,-0.66146 z"
         id="path560" />
      <path
         d="m 52.34672,176.87328 h -0.02067 q -0.08682,-0.0207 -0.169498,-0.0289 -0.08062,-0.0103 -0.192237,-0.0103 -0.179833,0 -0.347265,0.0806 -0.167431,0.0785 -0.322461,0.20464 v 1.63918 h -0.388606 v -2.3089 h 0.388606 v 0.34106 q 0.231511,-0.18603 0.40721,-0.26251 0.177767,-0.0785 0.361735,-0.0785 0.101286,0 0.146761,0.006 0.04548,0.004 0.136426,0.0186 z"
         id="path562" />
    </g>
    <g
       aria-label="Time"
       id="text25970-9"
       style="font-size:4.23333px;line-height:1.25;-inkscape-font-specification:'sans-serif, Normal';stroke-width:0.264583">
      <path
         d="M 7.9312979,251.09055 H 6.8316244 v 2.71405 h -0.409277 v -2.71405 H 5.3226738 v -0.3638 h 2.6086241 z"
         id="path517" />
      <path
         d="M 8.7312485,251.10916 H 8.2930327 v -0.40308 h 0.4382158 z m -0.024805,2.69544 H 8.3178374 v -2.30891 h 0.3886064 z"
         id="path519" />
      <path
         d="m 12.844689,253.8046 h -0.388606 v -1.31465 q 0,-0.14883 -0.01447,-0.28732 -0.0124,-0.13849 -0.05581,-0.22118 -0.04754,-0.0889 -0.136426,-0.13436 -0.08888,-0.0455 -0.256315,-0.0455 -0.163297,0 -0.326595,0.0827 -0.163297,0.0806 -0.326594,0.20671 0.0062,0.0475 0.01033,0.11162 0.0041,0.062 0.0041,0.12402 v 1.47795 h -0.388606 v -1.31465 q 0,-0.15296 -0.01447,-0.28939 -0.0124,-0.13849 -0.05581,-0.22117 -0.04754,-0.0889 -0.136426,-0.1323 -0.08888,-0.0455 -0.256315,-0.0455 -0.159163,0 -0.320393,0.0785 -0.159164,0.0786 -0.318327,0.2005 v 1.72393 H 9.4753885 v -2.30891 H 9.863995 v 0.25632 q 0.181901,-0.1509 0.361735,-0.23564 0.181901,-0.0847 0.386539,-0.0847 0.235644,0 0.398942,0.0992 0.165364,0.0992 0.245979,0.27492 0.235645,-0.19843 0.429948,-0.28525 0.194303,-0.0889 0.415478,-0.0889 0.380338,0 0.560172,0.23151 0.181901,0.22944 0.181901,0.64285 z"
         id="path521" />
      <path
         d="m 15.52566,252.69045 h -1.701187 q 0,0.21291 0.06408,0.37207 0.06408,0.1571 0.1757,0.25838 0.107487,0.0992 0.254248,0.14883 0.148828,0.0496 0.326594,0.0496 0.235645,0 0.473356,-0.093 0.239779,-0.0951 0.341064,-0.18603 h 0.02067 v 0.42375 q -0.19637,0.0827 -0.401009,0.13849 -0.204638,0.0558 -0.429947,0.0558 -0.574642,0 -0.897103,-0.31006 -0.32246,-0.31212 -0.32246,-0.8847 0,-0.56637 0.307991,-0.89917 0.310058,-0.33279 0.81442,-0.33279 0.467155,0 0.719335,0.27285 0.254248,0.27285 0.254248,0.77514 z m -0.378271,-0.29765 q -0.0021,-0.30593 -0.155029,-0.47336 -0.150895,-0.16743 -0.460954,-0.16743 -0.312125,0 -0.49816,0.18397 -0.183968,0.18397 -0.208773,0.45682 z"
         id="path523" />
    </g>
    <g
       aria-label="In"
       id="text25970-9-3"
       style="font-size:4.23333px;line-height:1.25;-inkscape-font-specification:'sans-serif, Normal';stroke-width:0.264583">
      <path
         d="m 38.587536,289.70627 h -1.215429 v -0.31419 h 0.403076 v -2.44946 h -0.403076 v -0.3142 h 1.215429 v 0.3142 H 38.18446 v 2.44946 h 0.403076 z"
         id="path512" />
      <path
         d="m 41.183758,289.70627 h -0.388607 v -1.31465 q 0,-0.15916 -0.0186,-0.29766 -0.0186,-0.14055 -0.06821,-0.2191 -0.05168,-0.0868 -0.148828,-0.12816 -0.09715,-0.0434 -0.252181,-0.0434 -0.159163,0 -0.332796,0.0786 -0.173632,0.0786 -0.332796,0.2005 v 1.72393 h -0.388606 v -2.3089 h 0.388606 v 0.25631 q 0.181901,-0.15089 0.376204,-0.23564 0.194304,-0.0848 0.398942,-0.0848 0.374137,0 0.570507,0.22531 0.196371,0.22531 0.196371,0.64905 z"
         id="path514" />
    </g>
    <g
       aria-label="Out"
       id="text25970-9-3-8"
       style="font-size:4.23333px;line-height:1.25;-inkscape-font-specification:'sans-serif, Normal';stroke-width:0.264583">
      <path
         d="m 50.770785,286.98189 q 0.188102,0.2067 0.287321,0.50643 0.101286,0.29972 0.101286,0.68006 0,0.38034 -0.103353,0.68213 -0.101286,0.29972 -0.285254,0.50022 -0.190169,0.20878 -0.450618,0.3142 -0.258382,0.10542 -0.591178,0.10542 -0.324527,0 -0.591178,-0.10749 -0.264583,-0.10749 -0.450618,-0.31213 -0.186035,-0.20463 -0.28732,-0.50229 -0.09922,-0.29766 -0.09922,-0.68006 0,-0.37621 0.09922,-0.67386 0.09922,-0.29972 0.289387,-0.51263 0.181901,-0.20257 0.450618,-0.31006 0.270785,-0.10749 0.589111,-0.10749 0.330729,0 0.593245,0.10956 0.264583,0.10748 0.448551,0.30799 z m -0.03721,1.18649 q 0,-0.59945 -0.268717,-0.92397 -0.268717,-0.3266 -0.733805,-0.3266 -0.469221,0 -0.737938,0.3266 -0.266651,0.32452 -0.266651,0.92397 0,0.60565 0.272852,0.92811 0.272851,0.32039 0.731737,0.32039 0.458887,0 0.729671,-0.32039 0.272851,-0.32246 0.272851,-0.92811 z"
         id="path505" />
      <path
         d="m 53.691535,289.70627 h -0.388607 v -0.25632 q -0.19637,0.15503 -0.376204,0.23771 -0.179834,0.0827 -0.396875,0.0827 -0.363801,0 -0.566373,-0.22118 -0.202571,-0.22324 -0.202571,-0.65319 v -1.49861 h 0.388606 v 1.31464 q 0,0.1757 0.01654,0.30179 0.01654,0.12403 0.07028,0.21291 0.05581,0.0909 0.144693,0.13229 0.08888,0.0413 0.258382,0.0413 0.150895,0 0.328662,-0.0785 0.179834,-0.0786 0.334863,-0.20051 v -1.72392 h 0.388607 z"
         id="path507" />
      <path
         d="m 55.655238,289.6856 q -0.109554,0.0289 -0.239779,0.0475 -0.128157,0.0186 -0.229443,0.0186 -0.353466,0 -0.537434,-0.19017 -0.183968,-0.19016 -0.183968,-0.60978 v -1.22783 h -0.262516 v -0.32659 h 0.262516 v -0.66353 h 0.388606 v 0.66353 h 0.802018 v 0.32659 H 54.85322 v 1.05213 q 0,0.1819 0.0083,0.28526 0.0083,0.10128 0.05788,0.19017 0.04548,0.0827 0.124023,0.12195 0.08062,0.0372 0.243913,0.0372 0.09508,0 0.198437,-0.0269 0.103353,-0.0289 0.148828,-0.0475 h 0.02067 z"
         id="path509" />
    </g>
    <g
       aria-label="Feed"
       id="text25970-9-9"
       style="font-size:4.23333px;line-height:1.25;-inkscape-font-specification:'sans-serif, Normal';display:inline;stroke-width:0.264583">
      <path
         d="m 20.931011,251.09101 h -1.556493 v 0.86816 h 1.337385 v 0.3638 h -1.337385 v 1.48208 h -0.409277 v -3.07784 h 1.96577 z"
         id="path496" />
      <path
         d="m 23.196504,252.69091 h -1.701186 q 0,0.21291 0.06408,0.37207 0.06408,0.1571 0.1757,0.25838 0.107487,0.0992 0.254248,0.14883 0.148828,0.0496 0.326595,0.0496 0.235644,0 0.473355,-0.093 0.239779,-0.0951 0.341064,-0.18603 h 0.02067 v 0.42374 q -0.19637,0.0827 -0.401009,0.1385 -0.204638,0.0558 -0.429947,0.0558 -0.574642,0 -0.897102,-0.31006 -0.322461,-0.31213 -0.322461,-0.8847 0,-0.56637 0.307991,-0.89917 0.310059,-0.3328 0.81442,-0.3328 0.467155,0 0.719335,0.27286 0.254248,0.27285 0.254248,0.77514 z m -0.378271,-0.29766 q -0.0021,-0.30592 -0.155029,-0.47335 -0.150895,-0.16743 -0.460953,-0.16743 -0.312126,0 -0.498161,0.18397 -0.183968,0.18396 -0.208772,0.45681 z"
         id="path498" />
      <path
         d="m 25.718312,252.69091 h -1.701187 q 0,0.21291 0.06408,0.37207 0.06408,0.1571 0.1757,0.25838 0.107487,0.0992 0.254247,0.14883 0.148828,0.0496 0.326595,0.0496 0.235645,0 0.473356,-0.093 0.239778,-0.0951 0.341064,-0.18603 h 0.02067 v 0.42374 q -0.196371,0.0827 -0.401009,0.1385 -0.204639,0.0558 -0.429948,0.0558 -0.574641,0 -0.897102,-0.31006 -0.32246,-0.31213 -0.32246,-0.8847 0,-0.56637 0.307991,-0.89917 0.310058,-0.3328 0.81442,-0.3328 0.467154,0 0.719335,0.27286 0.254248,0.27285 0.254248,0.77514 z m -0.378271,-0.29766 q -0.0021,-0.30592 -0.155029,-0.47335 -0.150895,-0.16743 -0.460954,-0.16743 -0.312125,0 -0.49816,0.18397 -0.183968,0.18396 -0.208773,0.45681 z"
         id="path500" />
      <path
         d="m 28.180175,253.80505 h -0.388606 v -0.24184 q -0.167432,0.14469 -0.349333,0.22531 -0.181901,0.0806 -0.394807,0.0806 -0.413412,0 -0.657324,-0.31832 -0.241846,-0.31833 -0.241846,-0.88264 0,-0.29352 0.08268,-0.52296 0.08475,-0.22945 0.227376,-0.39068 0.140559,-0.15709 0.326594,-0.23977 0.188103,-0.0827 0.388607,-0.0827 0.181901,0 0.322461,0.0393 0.140559,0.0372 0.295589,0.11782 v -1.00045 h 0.388606 z m -0.388606,-0.56844 v -1.32498 q -0.157097,-0.0703 -0.28112,-0.0971 -0.124023,-0.0269 -0.270784,-0.0269 -0.326595,0 -0.508496,0.22737 -0.181901,0.22738 -0.181901,0.64492 0,0.41135 0.14056,0.62632 0.14056,0.21291 0.450618,0.21291 0.165364,0 0.334863,-0.0724 0.169499,-0.0744 0.31626,-0.19017 z"
         id="path502" />
    </g>
    <g
       aria-label="Wet"
       id="text25970-9-4-5"
       style="font-size:4.23333px;line-height:1.25;-inkscape-font-specification:'sans-serif, Normal';display:inline;stroke-width:0.264583">
      <path
         d="m 23.605787,233.26442 -0.799951,3.07785 h -0.460953 l -0.646988,-2.55488 -0.632519,2.55488 h -0.450619 l -0.814419,-3.07785 h 0.419612 l 0.646988,2.55902 0.636653,-2.55902 h 0.415479 l 0.642854,2.58382 0.642854,-2.58382 z"
         id="path489" />
      <path
         d="m 25.904353,235.22813 h -1.701187 q 0,0.2129 0.06408,0.37207 0.06408,0.15709 0.175699,0.25838 0.107487,0.0992 0.254248,0.14883 0.148828,0.0496 0.326595,0.0496 0.235644,0 0.473356,-0.093 0.239778,-0.0951 0.341064,-0.18604 h 0.02067 v 0.42375 q -0.19637,0.0827 -0.401008,0.13849 -0.204639,0.0558 -0.429948,0.0558 -0.574641,0 -0.897102,-0.31005 -0.322461,-0.31213 -0.322461,-0.8847 0,-0.56638 0.307991,-0.89917 0.310059,-0.3328 0.81442,-0.3328 0.467155,0 0.719336,0.27285 0.254248,0.27285 0.254248,0.77515 z m -0.378272,-0.29766 q -0.0021,-0.30592 -0.155029,-0.47335 -0.150895,-0.16744 -0.460953,-0.16744 -0.312126,0 -0.498161,0.18397 -0.183968,0.18397 -0.208772,0.45682 z"
         id="path491" />
      <path
         d="m 27.692356,236.3216 q -0.109554,0.0289 -0.239779,0.0475 -0.128157,0.0186 -0.229443,0.0186 -0.353466,0 -0.537434,-0.19017 -0.183968,-0.19017 -0.183968,-0.60979 v -1.22783 h -0.262516 v -0.32659 h 0.262516 v -0.66353 h 0.388606 v 0.66353 h 0.802018 v 0.32659 h -0.802018 v 1.05213 q 0,0.18191 0.0083,0.28526 0.0083,0.10128 0.05788,0.19017 0.04547,0.0827 0.124023,0.12195 0.08061,0.0372 0.243913,0.0372 0.09508,0 0.198437,-0.0269 0.103353,-0.0289 0.148828,-0.0475 h 0.02067 z"
         id="path493" />
    </g>
    <g
       aria-label="Dry"
       id="text25970-9-4"
       style="font-size:4.23333px;line-height:1.25;-inkscape-font-specification:'sans-serif, Normal';display:inline;stroke-width:0.264583">
      <path
         d="m 9.9239399,234.80645 q 0,0.41961 -0.1839679,0.76067 -0.1819009,0.34107 -0.4857581,0.52917 -0.2108396,0.13022 -0.4712886,0.1881 -0.258382,0.0579 -0.6821284,0.0579 H 7.323584 v -3.07785 h 0.7689447 q 0.4506181,0 0.7152012,0.0661 0.2666502,0.0641 0.4506181,0.17777 0.3141925,0.19637 0.4898922,0.52296 0.1756997,0.3266 0.1756997,0.77515 z m -0.4278805,-0.006 q 0,-0.36174 -0.1260904,-0.60978 -0.1260903,-0.24805 -0.3762041,-0.39068 -0.1819009,-0.10335 -0.3865394,-0.14263 -0.2046385,-0.0413 -0.4898921,-0.0413 H 7.732861 v 2.37505 h 0.3844724 q 0.2955889,0 0.5146968,-0.0434 0.221175,-0.0434 0.4051429,-0.16123 0.2294432,-0.14676 0.3431312,-0.38654 0.1157551,-0.23978 0.1157551,-0.59944 z"
         id="path482" />
      <path
         d="m 11.99513,234.45712 h -0.02067 q -0.08682,-0.0207 -0.169499,-0.0289 -0.08061,-0.0103 -0.192236,-0.0103 -0.179834,0 -0.347265,0.0806 -0.167432,0.0785 -0.322461,0.20463 v 1.63918 h -0.388606 v -2.3089 h 0.388606 v 0.34106 q 0.231511,-0.18603 0.40721,-0.26251 0.177767,-0.0786 0.361735,-0.0786 0.101286,0 0.146761,0.006 0.04547,0.004 0.136426,0.0186 z"
         id="path484" />
      <path
         d="m 14.357774,234.03337 -1.34772,3.16053 h -0.415478 l 0.429947,-0.96325 -0.919839,-2.19728 h 0.421679 l 0.709,1.71152 0.715201,-1.71152 z"
         id="path486" />
    </g>
    <g
       aria-label="Drift"
       id="text25970-9-0"
       style="font-size:4.23333px;line-height:1.25;-inkscape-font-specification:'sans-serif, Normal';display:inline;stroke-width:0.264583">
      <path
         d="m 34.79478,252.26877 q 0,0.41962 -0.183967,0.76068 -0.181901,0.34106 -0.485759,0.52917 -0.210839,0.13022 -0.471288,0.1881 -0.258382,0.0579 -0.682129,0.0579 h -0.777212 v -3.07785 h 0.768944 q 0.450618,0 0.715201,0.0661 0.266651,0.0641 0.450619,0.17776 0.314192,0.19637 0.489892,0.52297 0.175699,0.32659 0.175699,0.77514 z m -0.42788,-0.006 q 0,-0.36173 -0.12609,-0.60978 -0.126091,-0.24805 -0.376205,-0.39067 -0.1819,-0.10336 -0.386539,-0.14263 -0.204638,-0.0413 -0.489892,-0.0413 h -0.384472 v 2.37505 h 0.384472 q 0.295589,0 0.514697,-0.0434 0.221175,-0.0434 0.405143,-0.16123 0.229443,-0.14676 0.343131,-0.38654 0.115755,-0.23978 0.115755,-0.59945 z"
         id="path471" />
      <path
         d="M 36.86597,251.91944 H 36.8453 q -0.08682,-0.0207 -0.169499,-0.0289 -0.08062,-0.0103 -0.192236,-0.0103 -0.179834,0 -0.347265,0.0806 -0.167432,0.0786 -0.322461,0.20464 v 1.63918 h -0.388607 v -2.30891 h 0.388607 v 0.34107 q 0.23151,-0.18604 0.40721,-0.26252 0.177767,-0.0786 0.361735,-0.0786 0.101285,0 0.14676,0.006 0.04548,0.004 0.136426,0.0186 z"
         id="path473" />
      <path
         d="m 37.649384,251.10916 h -0.438215 v -0.40308 h 0.438215 z m -0.0248,2.69544 h -0.388607 v -2.30891 h 0.388607 z"
         id="path475" />
      <path
         d="m 39.635825,250.96446 h -0.02067 q -0.06408,-0.0186 -0.167432,-0.0372 -0.103352,-0.0207 -0.1819,-0.0207 -0.250114,0 -0.363802,0.11163 -0.111621,0.10955 -0.111621,0.39894 v 0.0785 h 0.700732 v 0.3266 h -0.68833 v 1.98231 h -0.388606 v -1.98231 h -0.262516 v -0.3266 h 0.262516 v -0.0765 q 0,-0.41134 0.204638,-0.63045 0.204639,-0.22117 0.591178,-0.22117 0.130225,0 0.233577,0.0124 0.10542,0.0124 0.192237,0.0289 z"
         id="path477" />
      <path
         d="m 41.080697,253.78393 q -0.109554,0.0289 -0.239779,0.0475 -0.128157,0.0186 -0.229443,0.0186 -0.353466,0 -0.537434,-0.19017 -0.183968,-0.19017 -0.183968,-0.60978 v -1.22783 h -0.262516 v -0.3266 h 0.262516 v -0.66352 h 0.388606 v 0.66352 h 0.802018 v 0.3266 h -0.802018 v 1.05213 q 0,0.1819 0.0083,0.28525 0.0083,0.10129 0.05788,0.19017 0.04548,0.0827 0.124023,0.12196 0.08062,0.0372 0.243913,0.0372 0.09508,0 0.198437,-0.0269 0.103353,-0.0289 0.148828,-0.0476 h 0.02067 z"
         id="path479" />
    </g>
    <g
       aria-label="Sens"
       id="text25970-9-9-1"
       style="font-size:4.23333px;line-height:1.25;-inkscape-font-specification:'sans-serif, Normal';display:inline;stroke-width:0.264583">
      <path
         d="m 34.430981,235.46389 q 0,0.17984 -0.08475,0.35554 -0.08268,0.1757 -0.233577,0.29765 -0.165364,0.13229 -0.386539,0.20671 -0.219108,0.0744 -0.529167,0.0744 -0.332795,0 -0.599446,-0.062 -0.264583,-0.062 -0.539501,-0.18397 v -0.51263 h 0.02894 q 0.233577,0.19431 0.539501,0.29973 0.305924,0.10542 0.574642,0.10542 0.380338,0 0.591177,-0.14263 0.212907,-0.14263 0.212907,-0.38034 0,-0.20464 -0.101286,-0.30179 -0.09922,-0.0971 -0.303857,-0.15089 -0.155029,-0.0413 -0.33693,-0.0682 -0.179834,-0.0269 -0.382405,-0.0682 -0.409277,-0.0868 -0.607714,-0.29559 -0.196371,-0.21084 -0.196371,-0.54777 0,-0.38654 0.326595,-0.63252 0.326595,-0.24804 0.828889,-0.24804 0.324528,0 0.595312,0.062 0.270785,0.062 0.479557,0.15296 v 0.48369 h -0.02894 q -0.1757,-0.14883 -0.463021,-0.24598 -0.285254,-0.0992 -0.584977,-0.0992 -0.328661,0 -0.529166,0.13643 -0.198437,0.13642 -0.198437,0.3514 0,0.19223 0.09922,0.30179 0.09922,0.10955 0.349333,0.16743 0.132291,0.0289 0.376204,0.0703 0.243913,0.0413 0.413411,0.0848 0.343131,0.0909 0.516764,0.27492 0.173633,0.18396 0.173633,0.51469 z"
         id="path462" />
      <path
         d="m 36.989995,235.22825 h -1.701186 q 0,0.21291 0.06408,0.37207 0.06408,0.1571 0.1757,0.25838 0.107487,0.0992 0.254248,0.14883 0.148828,0.0496 0.326595,0.0496 0.235644,0 0.473355,-0.093 0.239779,-0.0951 0.341065,-0.18603 h 0.02067 v 0.42374 q -0.19637,0.0827 -0.401009,0.13849 -0.204638,0.0558 -0.429947,0.0558 -0.574642,0 -0.897102,-0.31006 -0.322461,-0.31213 -0.322461,-0.8847 0,-0.56638 0.307991,-0.89917 0.310059,-0.3328 0.81442,-0.3328 0.467155,0 0.719336,0.27285 0.254247,0.27285 0.254247,0.77515 z m -0.378271,-0.29766 q -0.0021,-0.30592 -0.155029,-0.47335 -0.150895,-0.16743 -0.460953,-0.16743 -0.312126,0 -0.498161,0.18396 -0.183968,0.18397 -0.208772,0.45682 z"
         id="path464" />
      <path
         d="M 39.509736,236.34239 H 39.12113 v -1.31465 q 0,-0.15916 -0.0186,-0.29765 -0.0186,-0.14056 -0.06821,-0.21911 -0.05168,-0.0868 -0.148828,-0.12816 -0.09715,-0.0434 -0.25218,-0.0434 -0.159164,0 -0.332796,0.0785 -0.173633,0.0786 -0.332796,0.20051 v 1.72392 h -0.388607 v -2.3089 h 0.388607 v 0.25632 q 0.181901,-0.1509 0.376204,-0.23565 0.194303,-0.0847 0.398942,-0.0847 0.374137,0 0.570507,0.22531 0.19637,0.22531 0.19637,0.64906 z"
         id="path466" />
      <path
         d="m 41.90752,235.6768 q 0,0.31626 -0.262516,0.51883 -0.260449,0.20257 -0.713134,0.20257 -0.256315,0 -0.471289,-0.0599 -0.212906,-0.062 -0.3576,-0.13436 v -0.43615 h 0.02067 q 0.183968,0.13849 0.409277,0.22118 0.225309,0.0806 0.432015,0.0806 0.256315,0 0.401009,-0.0827 0.144694,-0.0827 0.144694,-0.26045 0,-0.13643 -0.07855,-0.20671 -0.07855,-0.0703 -0.30179,-0.11989 -0.08268,-0.0186 -0.21704,-0.0434 -0.132292,-0.0248 -0.241846,-0.0538 -0.303857,-0.0806 -0.432015,-0.23564 -0.12609,-0.1571 -0.12609,-0.38447 0,-0.14263 0.05788,-0.26872 0.05994,-0.12609 0.179833,-0.22531 0.115756,-0.0971 0.293522,-0.15296 0.179834,-0.0579 0.401009,-0.0579 0.206706,0 0.417545,0.0517 0.212907,0.0496 0.353467,0.12195 v 0.41548 h -0.02067 q -0.148828,-0.10955 -0.361734,-0.18397 -0.212907,-0.0765 -0.417546,-0.0765 -0.212906,0 -0.359667,0.0827 -0.146761,0.0806 -0.146761,0.24185 0,0.14263 0.08888,0.21497 0.08682,0.0724 0.28112,0.11783 0.107487,0.0248 0.239778,0.0496 0.134359,0.0248 0.223242,0.0455 0.270784,0.062 0.417545,0.21291 0.146761,0.15296 0.146761,0.40514 z"
         id="path468" />
    </g>
    <g
       aria-label="Latch"
       id="text25970-9-0-0"
       style="font-size:4.23333px;line-height:1.25;-inkscape-font-specification:'sans-serif, Normal';display:inline;stroke-width:0.264583">
      <path
         d="m 47.37077,253.8046 h -1.947166 v -3.07785 h 0.409277 v 2.71404 h 1.537889 z"
         id="path451" />
      <path
         d="m 49.543246,253.8046 h -0.38654 v -0.24598 q -0.05168,0.0351 -0.140559,0.0992 -0.08682,0.062 -0.169499,0.0992 -0.09715,0.0476 -0.223242,0.0786 -0.12609,0.0331 -0.295589,0.0331 -0.312125,0 -0.529166,-0.2067 -0.217041,-0.20671 -0.217041,-0.5271 0,-0.26252 0.111621,-0.42375 0.113688,-0.16329 0.322461,-0.25631 0.210839,-0.093 0.506428,-0.12609 0.295589,-0.0331 0.634586,-0.0496 v -0.06 q 0,-0.13229 -0.04754,-0.2191 -0.04548,-0.0868 -0.132291,-0.13643 -0.08268,-0.0475 -0.198438,-0.0641 -0.115755,-0.0165 -0.241845,-0.0165 -0.152962,0 -0.341064,0.0413 -0.188103,0.0393 -0.388607,0.11575 h -0.02067 v -0.39481 q 0.113688,-0.031 0.328661,-0.0682 0.214974,-0.0372 0.423747,-0.0372 0.243912,0 0.423746,0.0414 0.181901,0.0393 0.314193,0.13642 0.130224,0.0951 0.198437,0.24598 0.06821,0.1509 0.06821,0.37414 z m -0.38654,-0.56844 v -0.64286 q -0.177766,0.0103 -0.419612,0.031 -0.239778,0.0207 -0.380338,0.0599 -0.167432,0.0475 -0.270784,0.14883 -0.103353,0.0992 -0.103353,0.27492 0,0.19844 0.119889,0.29972 0.119889,0.0992 0.365869,0.0992 0.204638,0 0.374137,-0.0785 0.169498,-0.0806 0.314192,-0.19223 z"
         id="path453" />
      <path
         d="m 51.490412,253.78393 q -0.109554,0.0289 -0.239778,0.0475 -0.128158,0.0186 -0.229443,0.0186 -0.353467,0 -0.537435,-0.19017 -0.183968,-0.19017 -0.183968,-0.60978 v -1.22783 h -0.262516 v -0.3266 h 0.262516 v -0.66352 h 0.388607 v 0.66352 h 0.802017 v 0.3266 h -0.802017 v 1.05213 q 0,0.1819 0.0083,0.28525 0.0083,0.10129 0.05788,0.19017 0.04547,0.0827 0.124023,0.12196 0.08062,0.0372 0.243912,0.0372 0.09509,0 0.198438,-0.0269 0.103353,-0.0289 0.148828,-0.0476 h 0.02067 z"
         id="path455" />
      <path
         d="m 53.667022,253.6599 q -0.194304,0.093 -0.370003,0.1447 -0.173633,0.0517 -0.370003,0.0517 -0.250114,0 -0.458887,-0.0723 -0.208772,-0.0744 -0.3576,-0.22325 -0.150895,-0.14882 -0.233577,-0.3762 -0.08268,-0.22738 -0.08268,-0.53123 0,-0.56638 0.310059,-0.88884 0.312125,-0.32246 0.822688,-0.32246 0.198437,0 0.388606,0.0558 0.192236,0.0558 0.3514,0.13643 v 0.43201 h -0.02067 q -0.177767,-0.13849 -0.367936,-0.2129 -0.188102,-0.0744 -0.367936,-0.0744 -0.330729,0 -0.522965,0.22324 -0.190169,0.22118 -0.190169,0.65113 0,0.41754 0.186035,0.64285 0.188102,0.22324 0.527099,0.22324 0.117823,0 0.239779,-0.031 0.121956,-0.031 0.219108,-0.0806 0.08475,-0.0434 0.159163,-0.091 0.07441,-0.0496 0.117822,-0.0847 h 0.02067 z"
         id="path457" />
      <path
         d="m 56.095812,253.8046 h -0.388606 v -1.31465 q 0,-0.15916 -0.0186,-0.29766 -0.0186,-0.14056 -0.06821,-0.21911 -0.05168,-0.0868 -0.148828,-0.12815 -0.09715,-0.0434 -0.252181,-0.0434 -0.159163,0 -0.332796,0.0785 -0.173632,0.0786 -0.332795,0.2005 v 1.72393 h -0.388607 v -3.21634 h 0.388607 v 1.16375 q 0.1819,-0.1509 0.376204,-0.23564 0.194303,-0.0847 0.398941,-0.0847 0.374137,0 0.570508,0.22531 0.19637,0.2253 0.19637,0.64905 z"
         id="path459" />
    </g>
    <g
       aria-label="Latch"
       id="text25970-9-0-0-3"
       style="font-size:4.23333px;line-height:1.25;-inkscape-font-specification:'sans-serif, Normal';display:inline;stroke-width:0.264583">
      <path
         d="m 47.37077,236.34207 h -1.947166 v -3.07784 h 0.409277 v 2.71404 h 1.537889 z"
         id="path440" />
      <path
         d="m 49.543246,236.34207 h -0.38654 v -0.24598 q -0.05168,0.0351 -0.140559,0.0992 -0.08682,0.062 -0.169499,0.0992 -0.09715,0.0475 -0.223242,0.0785 -0.12609,0.0331 -0.295589,0.0331 -0.312125,0 -0.529166,-0.20671 -0.217041,-0.2067 -0.217041,-0.52709 0,-0.26252 0.111621,-0.42375 0.113688,-0.1633 0.322461,-0.25632 0.210839,-0.093 0.506428,-0.12609 0.295589,-0.0331 0.634586,-0.0496 v -0.0599 q 0,-0.13229 -0.04754,-0.21911 -0.04548,-0.0868 -0.132291,-0.13642 -0.08268,-0.0476 -0.198438,-0.0641 -0.115755,-0.0165 -0.241845,-0.0165 -0.152962,0 -0.341064,0.0413 -0.188103,0.0393 -0.388607,0.11576 h -0.02067 v -0.39481 q 0.113688,-0.031 0.328661,-0.0682 0.214974,-0.0372 0.423747,-0.0372 0.243912,0 0.423746,0.0413 0.181901,0.0393 0.314193,0.13643 0.130224,0.0951 0.198437,0.24598 0.06821,0.15089 0.06821,0.37413 z m -0.38654,-0.56844 v -0.64285 q -0.177766,0.0103 -0.419612,0.031 -0.239778,0.0207 -0.380338,0.06 -0.167432,0.0475 -0.270784,0.14883 -0.103353,0.0992 -0.103353,0.27491 0,0.19844 0.119889,0.29973 0.119889,0.0992 0.365869,0.0992 0.204638,0 0.374137,-0.0786 0.169498,-0.0806 0.314192,-0.19224 z"
         id="path442" />
      <path
         d="m 51.490412,236.3214 q -0.109554,0.0289 -0.239778,0.0475 -0.128158,0.0186 -0.229443,0.0186 -0.353467,0 -0.537435,-0.19017 -0.183968,-0.19017 -0.183968,-0.60978 v -1.22783 h -0.262516 v -0.3266 h 0.262516 v -0.66352 h 0.388607 v 0.66352 h 0.802017 v 0.3266 h -0.802017 v 1.05213 q 0,0.1819 0.0083,0.28525 0.0083,0.10129 0.05788,0.19017 0.04547,0.0827 0.124023,0.12196 0.08062,0.0372 0.243912,0.0372 0.09509,0 0.198438,-0.0269 0.103353,-0.0289 0.148828,-0.0475 h 0.02067 z"
         id="path444" />
      <path
         d="m 53.667022,236.19738 q -0.194304,0.093 -0.370003,0.14469 -0.173633,0.0517 -0.370003,0.0517 -0.250114,0 -0.458887,-0.0724 -0.208772,-0.0744 -0.3576,-0.22324 -0.150895,-0.14883 -0.233577,-0.37621 -0.08268,-0.22737 -0.08268,-0.53123 0,-0.56637 0.310059,-0.88883 0.312125,-0.32246 0.822688,-0.32246 0.198437,0 0.388606,0.0558 0.192236,0.0558 0.3514,0.13642 v 0.43202 h -0.02067 q -0.177767,-0.13849 -0.367936,-0.21291 -0.188102,-0.0744 -0.367936,-0.0744 -0.330729,0 -0.522965,0.22324 -0.190169,0.22117 -0.190169,0.65112 0,0.41755 0.186035,0.64286 0.188102,0.22324 0.527099,0.22324 0.117823,0 0.239779,-0.031 0.121956,-0.031 0.219108,-0.0806 0.08475,-0.0434 0.159163,-0.0909 0.07441,-0.0496 0.117822,-0.0848 h 0.02067 z"
         id="path446" />
      <path
         d="m 56.095812,236.34207 h -0.388606 v -1.31465 q 0,-0.15916 -0.0186,-0.29765 -0.0186,-0.14056 -0.06821,-0.21911 -0.05168,-0.0868 -0.148828,-0.12816 -0.09715,-0.0434 -0.252181,-0.0434 -0.159163,0 -0.332796,0.0786 -0.173632,0.0786 -0.332795,0.20051 v 1.72392 h -0.388607 v -3.21634 h 0.388607 v 1.16376 q 0.1819,-0.1509 0.376204,-0.23565 0.194303,-0.0848 0.398941,-0.0848 0.374137,0 0.570508,0.22531 0.19637,0.22531 0.19637,0.64906 z"
         id="path448" />
    </g>
    <g
       aria-label="Trig"
       id="text25970-9-4-6-8"
       style="font-size:2.82222px;line-height:1.25;-inkscape-font-specification:'sans-serif, Normal';display:inline;stroke-width:0.264583">
      <path
         d="m 22.282532,195.98184 h -0.733115 v 1.80936 h -0.272852 v -1.80936 h -0.733116 v -0.24254 h 1.739083 z"
         id="path431" />
      <path
         d="m 23.222354,196.53443 h -0.01378 q -0.05788,-0.0138 -0.112999,-0.0193 -0.05374,-0.007 -0.128157,-0.007 -0.119889,0 -0.23151,0.0537 -0.111621,0.0524 -0.214974,0.13643 v 1.09278 h -0.259071 v -1.53927 h 0.259071 v 0.22738 q 0.15434,-0.12403 0.271473,-0.17501 0.118511,-0.0524 0.241157,-0.0524 0.06752,0 0.09784,0.004 0.03032,0.003 0.09095,0.0124 z"
         id="path433" />
      <path
         d="m 23.74463,195.99424 h -0.292144 v -0.26872 h 0.292144 z m -0.01654,1.79696 h -0.259071 v -1.53927 h 0.259071 z"
         id="path435" />
      <path
         d="m 25.489225,197.61619 q 0,0.39136 -0.177767,0.57464 -0.177767,0.18328 -0.547081,0.18328 -0.122645,0 -0.239778,-0.0179 -0.115755,-0.0165 -0.228754,-0.0482 v -0.26458 h 0.01378 q 0.06339,0.0248 0.201193,0.0606 0.137804,0.0372 0.275608,0.0372 0.132291,0 0.219108,-0.0317 0.08682,-0.0317 0.135047,-0.0882 0.04823,-0.0537 0.0689,-0.12953 0.02067,-0.0758 0.02067,-0.1695 v -0.14056 q -0.117133,0.0937 -0.22462,0.14056 -0.106109,0.0455 -0.271474,0.0455 -0.275607,0 -0.438215,-0.19844 -0.161231,-0.19981 -0.161231,-0.56223 0,-0.19844 0.05512,-0.34176 0.0565,-0.14469 0.152962,-0.24942 0.08957,-0.0978 0.21773,-0.15159 0.128157,-0.0551 0.254937,-0.0551 0.133669,0 0.223242,0.0276 0.09095,0.0262 0.191547,0.0813 l 0.01654,-0.0662 h 0.242535 z m -0.259071,-0.24805 v -0.83922 q -0.103353,-0.0469 -0.192925,-0.0661 -0.08819,-0.0207 -0.176389,-0.0207 -0.213596,0 -0.336241,0.14332 -0.122646,0.14331 -0.122646,0.41616 0,0.25907 0.09095,0.39274 0.09095,0.13367 0.30179,0.13367 0.112999,0 0.225998,-0.0427 0.114377,-0.0441 0.209462,-0.11713 z"
         id="path437" />
    </g>
    <g
       aria-label="Loop"
       id="text25970-9-4-6"
       style="font-size:2.82222px;line-height:1.25;-inkscape-font-specification:'sans-serif, Normal';display:inline;stroke-width:0.264583">
      <path
         d="m 8.0942534,197.7912 h -1.298111 v -2.0519 h 0.2728514 v 1.80936 h 1.0252596 z"
         id="path422" />
      <path
         d="m 9.6583255,197.02225 q 0,0.37621 -0.1929252,0.59394 -0.1929252,0.21773 -0.5167639,0.21773 -0.3265948,0 -0.51952,-0.21773 -0.1915472,-0.21773 -0.1915472,-0.59394 0,-0.3762 0.1915472,-0.59393 0.1929252,-0.21911 0.51952,-0.21911 0.3238387,0 0.5167639,0.21911 0.1929252,0.21773 0.1929252,0.59393 z m -0.2673392,0 q 0,-0.29903 -0.1171331,-0.44372 -0.1171332,-0.14608 -0.3252168,-0.14608 -0.2108397,0 -0.3279728,0.14608 -0.1157552,0.14469 -0.1157552,0.44372 0,0.28939 0.1171332,0.4396 0.1171332,0.14883 0.3265948,0.14883 0.2067056,0 0.3238387,-0.14745 0.1185112,-0.14883 0.1185112,-0.44098 z"
         id="path424" />
      <path
         d="m 11.371226,197.02225 q 0,0.37621 -0.192925,0.59394 -0.192926,0.21773 -0.516764,0.21773 -0.326595,0 -0.51952,-0.21773 -0.1915475,-0.21773 -0.1915475,-0.59394 0,-0.3762 0.1915475,-0.59393 0.192925,-0.21911 0.51952,-0.21911 0.323838,0 0.516764,0.21911 0.192925,0.21773 0.192925,0.59393 z m -0.267339,0 q 0,-0.29903 -0.117134,-0.44372 -0.117133,-0.14608 -0.325216,-0.14608 -0.21084,0 -0.327973,0.14608 -0.115755,0.14469 -0.115755,0.44372 0,0.28939 0.117133,0.4396 0.117133,0.14883 0.326595,0.14883 0.206705,0 0.323838,-0.14745 0.118512,-0.14883 0.118512,-0.44098 z"
         id="path426" />
      <path
         d="m 13.126845,197.00296 q 0,0.18741 -0.05374,0.34313 -0.05374,0.15434 -0.151584,0.26183 -0.09095,0.10197 -0.214974,0.15847 -0.122645,0.0551 -0.260449,0.0551 -0.119889,0 -0.21773,-0.0262 -0.09646,-0.0262 -0.197059,-0.0813 v 0.64492 h -0.259071 v -2.10702 h 0.259071 v 0.16123 q 0.103352,-0.0868 0.23151,-0.14469 0.129535,-0.0593 0.275607,-0.0593 0.278364,0 0.432704,0.21084 0.155718,0.20946 0.155718,0.58291 z m -0.267339,0.007 q 0,-0.27836 -0.09508,-0.41617 -0.09508,-0.1378 -0.292144,-0.1378 -0.111621,0 -0.22462,0.0482 -0.112999,0.0482 -0.216351,0.12678 v 0.8723 q 0.110243,0.0496 0.188791,0.0675 0.07993,0.0179 0.180523,0.0179 0.216351,0 0.337619,-0.14607 0.121267,-0.14608 0.121267,-0.43271 z"
         id="path428" />
    </g>
    <g
       aria-label="Glitch"
       id="text25970-9-4-6-9"
       style="font-size:2.82222px;line-height:1.25;-inkscape-font-specification:'sans-serif, Normal';display:inline;stroke-width:0.264583">
      <path
         d="m 17.093463,204.83508 q -0.16812,0.0772 -0.367936,0.13505 -0.198437,0.0565 -0.384472,0.0565 -0.239778,0 -0.439594,-0.0662 -0.199815,-0.0661 -0.340375,-0.19844 -0.141938,-0.13367 -0.219108,-0.33348 -0.07717,-0.20119 -0.07717,-0.46991 0,-0.49196 0.286632,-0.77584 0.288009,-0.28525 0.789615,-0.28525 0.175011,0 0.356912,0.0427 0.183279,0.0413 0.394118,0.14194 v 0.32384 h -0.0248 q -0.04272,-0.0331 -0.124024,-0.0868 -0.0813,-0.0537 -0.159852,-0.0896 -0.09508,-0.0427 -0.216352,-0.0703 -0.119889,-0.0289 -0.272851,-0.0289 -0.34451,0 -0.545703,0.22186 -0.199815,0.22049 -0.199815,0.59807 0,0.39825 0.209461,0.62012 0.209462,0.22048 0.570508,0.22048 0.132291,0 0.263205,-0.0262 0.132291,-0.0262 0.23151,-0.0675 v -0.50299 h -0.549837 v -0.23978 h 0.819932 z"
         id="path409" />
      <path
         d="M 17.811421,204.98666 H 17.55235 v -2.14422 h 0.259071 z"
         id="path411" />
      <path
         d="M 18.602414,203.1897 H 18.31027 v -0.26871 h 0.292144 z m -0.01654,1.79696 h -0.259071 v -1.53926 h 0.259071 z"
         id="path413" />
      <path
         d="m 19.897769,204.97288 q -0.07304,0.0193 -0.159852,0.0317 -0.08544,0.0124 -0.152963,0.0124 -0.235644,0 -0.358289,-0.12678 -0.122646,-0.12678 -0.122646,-0.40652 v -0.81855 h -0.17501 v -0.21773 h 0.17501 v -0.44235 h 0.259071 v 0.44235 h 0.534679 v 0.21773 H 19.36309 v 0.70142 q 0,0.12126 0.0055,0.19017 0.0055,0.0675 0.03859,0.12678 0.03032,0.0551 0.08268,0.0813 0.05374,0.0248 0.162608,0.0248 0.06339,0 0.132292,-0.0179 0.0689,-0.0193 0.09922,-0.0317 h 0.01378 z"
         id="path415" />
      <path
         d="m 21.348842,204.8902 q -0.129535,0.062 -0.246669,0.0965 -0.115755,0.0344 -0.246668,0.0344 -0.166743,0 -0.305924,-0.0482 -0.139182,-0.0496 -0.238401,-0.14882 -0.100597,-0.0992 -0.155718,-0.25081 -0.05512,-0.15158 -0.05512,-0.35415 0,-0.37759 0.206706,-0.59256 0.208084,-0.21497 0.548459,-0.21497 0.132291,0 0.259071,0.0372 0.128157,0.0372 0.234266,0.0909 v 0.28801 h -0.01378 q -0.118511,-0.0923 -0.245291,-0.14193 -0.125401,-0.0496 -0.245291,-0.0496 -0.220485,0 -0.348643,0.14883 -0.126779,0.14745 -0.126779,0.43408 0,0.27836 0.124023,0.42857 0.125401,0.14882 0.351399,0.14882 0.07855,0 0.159853,-0.0207 0.0813,-0.0207 0.146072,-0.0537 0.0565,-0.0289 0.106109,-0.0606 0.04961,-0.0331 0.07855,-0.0565 h 0.01378 z"
         id="path417" />
      <path
         d="m 22.968036,204.98666 h -0.259071 v -0.87643 q 0,-0.10611 -0.0124,-0.19844 -0.0124,-0.0937 -0.04547,-0.14607 -0.03445,-0.0579 -0.09922,-0.0854 -0.06477,-0.0289 -0.16812,-0.0289 -0.106109,0 -0.221864,0.0524 -0.115755,0.0524 -0.221864,0.13367 v 1.14928 h -0.259071 v -2.14422 h 0.259071 v 0.77583 q 0.121267,-0.10059 0.250803,-0.15709 0.129535,-0.0565 0.265961,-0.0565 0.249425,0 0.380338,0.1502 0.130914,0.15021 0.130914,0.43271 z"
         id="path419" />
    </g>
    <g
       aria-label="Fwd"
       id="text25970-9-4-6-9-9"
       style="font-size:2.82222px;line-height:1.25;-inkscape-font-specification:'sans-serif, Normal';display:inline;stroke-width:0.264583">
      <path
         d="m 39.975807,203.1773 h -1.037662 v 0.57878 h 0.89159 v 0.24253 h -0.89159 v 0.98805 h -0.272851 v -2.05189 h 1.310513 z"
         id="path402" />
      <path
         d="m 42.202715,203.4474 -0.401008,1.53926 h -0.239779 l -0.395497,-1.18649 -0.39274,1.18649 H 40.53529 l -0.405143,-1.53926 h 0.270096 l 0.282497,1.192 0.384473,-1.192 h 0.213595 l 0.394119,1.192 0.267339,-1.192 z"
         id="path404" />
      <path
         d="m 43.824665,204.98666 h -0.259071 v -0.16123 q -0.111621,0.0965 -0.232888,0.15021 -0.121267,0.0537 -0.263205,0.0537 -0.275608,0 -0.438216,-0.21221 -0.16123,-0.21222 -0.16123,-0.58843 0,-0.19568 0.05512,-0.34864 0.0565,-0.15296 0.151584,-0.26045 0.09371,-0.10473 0.21773,-0.15985 0.125401,-0.0551 0.259071,-0.0551 0.121267,0 0.214974,0.0262 0.09371,0.0248 0.197059,0.0786 v -0.66697 h 0.259071 z m -0.259071,-0.37896 v -0.88332 q -0.104731,-0.0469 -0.187413,-0.0648 -0.08268,-0.0179 -0.180523,-0.0179 -0.21773,0 -0.338997,0.15158 -0.121267,0.15159 -0.121267,0.42995 0,0.27423 0.09371,0.41755 0.09371,0.14193 0.300412,0.14193 0.110243,0 0.223242,-0.0482 0.113,-0.0496 0.21084,-0.12678 z"
         id="path406" />
    </g>
    <g
       aria-label="Rev"
       id="text25970-9-4-6-9-9-8"
       style="font-size:2.82222px;line-height:1.25;-inkscape-font-specification:'sans-serif, Normal';display:inline;stroke-width:0.264583">
      <path
         d="m 40.509108,218.21289 h -0.354155 l -0.686263,-0.8158 h -0.384472 v 0.8158 h -0.272852 v -2.0519 h 0.574642 q 0.186035,0 0.310058,0.0248 0.124024,0.0234 0.223242,0.0854 0.111621,0.0703 0.173633,0.17776 0.06339,0.10611 0.06339,0.2701 0,0.22186 -0.111621,0.37207 -0.111621,0.14883 -0.307303,0.22462 z m -0.638031,-1.4745 q 0,-0.0882 -0.03169,-0.15572 -0.03032,-0.0689 -0.101975,-0.11575 -0.05926,-0.04 -0.140559,-0.0551 -0.08131,-0.0165 -0.191548,-0.0165 h -0.321082 v 0.77446 h 0.275607 q 0.129536,0 0.225998,-0.0221 0.09646,-0.0234 0.163987,-0.0854 0.06201,-0.0579 0.09095,-0.13229 0.03032,-0.0758 0.03032,-0.19155 z"
         id="path395" />
      <path
         d="m 41.972584,217.47013 h -1.134125 q 0,0.14194 0.04272,0.24805 0.04272,0.10473 0.117133,0.17225 0.07166,0.0661 0.169499,0.0992 0.09922,0.0331 0.21773,0.0331 0.157096,0 0.31557,-0.062 0.159853,-0.0634 0.227376,-0.12402 h 0.01378 v 0.28249 q -0.130914,0.0551 -0.267339,0.0923 -0.136426,0.0372 -0.286632,0.0372 -0.383094,0 -0.598068,-0.20671 -0.214974,-0.20808 -0.214974,-0.5898 0,-0.37758 0.205328,-0.59944 0.206705,-0.22187 0.542946,-0.22187 0.311437,0 0.479557,0.1819 0.169499,0.18191 0.169499,0.51677 z m -0.252181,-0.19844 q -0.0014,-0.20395 -0.103353,-0.31557 -0.100597,-0.11162 -0.307302,-0.11162 -0.208084,0 -0.332107,0.12265 -0.122645,0.12264 -0.139182,0.30454 z"
         id="path397" />
      <path
         d="m 43.696508,216.67362 -0.622873,1.53927 h -0.260449 l -0.618738,-1.53927 h 0.281119 l 0.476801,1.22508 0.472667,-1.22508 z"
         id="path399" />
    </g>
    <g
       aria-label="Stretch"
       id="text25970-9-4-6-9-8"
       style="font-size:2.82222px;line-height:1.25;-inkscape-font-specification:'sans-serif, Normal';display:inline;stroke-width:0.264583">
      <path
         d="m 15.814646,217.62999 q 0,0.11989 -0.0565,0.23702 -0.05512,0.11713 -0.155718,0.19844 -0.110243,0.0882 -0.257693,0.1378 -0.146072,0.0496 -0.352777,0.0496 -0.221864,0 -0.399631,-0.0413 -0.176389,-0.0413 -0.359668,-0.12265 v -0.34175 h 0.01929 q 0.155718,0.12954 0.359667,0.19982 0.20395,0.0703 0.383095,0.0703 0.253559,0 0.394118,-0.0951 0.141938,-0.0951 0.141938,-0.25356 0,-0.13642 -0.06752,-0.20119 -0.06615,-0.0648 -0.202571,-0.1006 -0.103353,-0.0276 -0.22462,-0.0455 -0.119889,-0.0179 -0.254937,-0.0455 -0.272851,-0.0579 -0.405143,-0.19706 -0.130913,-0.14056 -0.130913,-0.36518 0,-0.25769 0.217729,-0.42168 0.21773,-0.16536 0.552593,-0.16536 0.216352,0 0.396875,0.0413 0.180523,0.0413 0.319705,0.10197 v 0.32246 h -0.01929 q -0.117133,-0.0992 -0.30868,-0.16398 -0.190169,-0.0661 -0.389985,-0.0661 -0.219108,0 -0.352777,0.0909 -0.132292,0.091 -0.132292,0.23427 0,0.12816 0.06615,0.20119 0.06615,0.073 0.232888,0.11162 0.0882,0.0193 0.250803,0.0469 0.162608,0.0276 0.275607,0.0565 0.228755,0.0606 0.34451,0.18328 0.115755,0.12264 0.115755,0.34313 z"
         id="path380" />
      <path
         d="m 17.031453,218.20187 q -0.07304,0.0193 -0.159853,0.0317 -0.08544,0.0124 -0.152962,0.0124 -0.235644,0 -0.358289,-0.12678 -0.122646,-0.12678 -0.122646,-0.40652 v -0.81856 h -0.17501 v -0.21773 h 0.17501 v -0.44234 h 0.259071 v 0.44234 h 0.534679 v 0.21773 h -0.534679 v 0.70143 q 0,0.12126 0.0055,0.19016 0.0055,0.0675 0.03858,0.12678 0.03032,0.0551 0.08268,0.0813 0.05374,0.0248 0.162608,0.0248 0.06339,0 0.132292,-0.0179 0.0689,-0.0193 0.09922,-0.0317 h 0.01378 z"
         id="path382" />
      <path
         d="m 18.304759,216.95888 h -0.01378 q -0.05788,-0.0138 -0.112999,-0.0193 -0.05374,-0.007 -0.128158,-0.007 -0.119889,0 -0.23151,0.0537 -0.111621,0.0524 -0.214974,0.13643 v 1.09278 h -0.259071 v -1.53927 h 0.259071 v 0.22738 q 0.15434,-0.12402 0.271473,-0.17501 0.118512,-0.0524 0.241157,-0.0524 0.06752,0 0.09784,0.004 0.03032,0.003 0.09095,0.0124 z"
         id="path384" />
      <path
         d="m 19.837136,217.47289 h -1.134124 q 0,0.14194 0.04272,0.24805 0.04272,0.10473 0.117133,0.17225 0.07166,0.0661 0.169498,0.0992 0.09922,0.0331 0.21773,0.0331 0.157097,0 0.315571,-0.062 0.159852,-0.0634 0.227376,-0.12402 h 0.01378 v 0.2825 q -0.130913,0.0551 -0.267339,0.0923 -0.136426,0.0372 -0.286632,0.0372 -0.383094,0 -0.598068,-0.2067 -0.214974,-0.20809 -0.214974,-0.5898 0,-0.37759 0.205328,-0.59945 0.206706,-0.22186 0.542947,-0.22186 0.311436,0 0.479557,0.1819 0.169498,0.1819 0.169498,0.51676 z m -0.252181,-0.19844 q -0.0014,-0.20395 -0.103352,-0.31557 -0.100597,-0.11162 -0.307303,-0.11162 -0.208083,0 -0.332107,0.12265 -0.122645,0.12264 -0.139181,0.30454 z"
         id="path386" />
      <path
         d="m 21.029138,218.20187 q -0.07304,0.0193 -0.159852,0.0317 -0.08544,0.0124 -0.152962,0.0124 -0.235645,0 -0.35829,-0.12678 -0.122645,-0.12678 -0.122645,-0.40652 v -0.81856 h -0.175011 v -0.21773 h 0.175011 v -0.44234 h 0.259071 v 0.44234 h 0.534678 v 0.21773 H 20.49446 v 0.70143 q 0,0.12126 0.0055,0.19016 0.0055,0.0675 0.03859,0.12678 0.03032,0.0551 0.08268,0.0813 0.05374,0.0248 0.162609,0.0248 0.06339,0 0.132291,-0.0179 0.0689,-0.0193 0.09922,-0.0317 h 0.01378 z"
         id="path388" />
      <path
         d="m 22.480212,218.11919 q -0.129536,0.062 -0.246669,0.0965 -0.115755,0.0344 -0.246669,0.0344 -0.166742,0 -0.305924,-0.0482 -0.139182,-0.0496 -0.2384,-0.14883 -0.100597,-0.0992 -0.155719,-0.2508 -0.05512,-0.15158 -0.05512,-0.35415 0,-0.37759 0.206706,-0.59256 0.208083,-0.21497 0.548458,-0.21497 0.132292,0 0.259071,0.0372 0.128158,0.0372 0.234267,0.0909 v 0.28801 h -0.01378 q -0.118511,-0.0923 -0.24529,-0.14193 -0.125402,-0.0496 -0.245291,-0.0496 -0.220486,0 -0.348643,0.14882 -0.12678,0.14745 -0.12678,0.43409 0,0.27836 0.124024,0.42857 0.125401,0.14882 0.351399,0.14882 0.07855,0 0.159852,-0.0207 0.08131,-0.0207 0.146072,-0.0537 0.0565,-0.0289 0.106109,-0.0606 0.04961,-0.0331 0.07855,-0.0565 h 0.01378 z"
         id="path390" />
      <path
         d="m 24.099405,218.21565 h -0.259071 v -0.87643 q 0,-0.10611 -0.0124,-0.19844 -0.0124,-0.0937 -0.04547,-0.14607 -0.03445,-0.0579 -0.09922,-0.0854 -0.06477,-0.0289 -0.168121,-0.0289 -0.106108,0 -0.221864,0.0524 -0.115755,0.0524 -0.221864,0.13367 v 1.14928 h -0.25907 v -2.14422 h 0.25907 v 0.77583 q 0.121268,-0.1006 0.250803,-0.15709 0.129536,-0.0565 0.265961,-0.0565 0.249425,0 0.380339,0.1502 0.130913,0.15021 0.130913,0.43271 z"
         id="path392" />
    </g>
    <g
       aria-label="LLatch"
       id="text25970-9-4-6-0"
       style="font-size:2.82222px;line-height:1.25;-inkscape-font-specification:'sans-serif, Normal';display:inline;stroke-width:0.264583">
      <path
         d="m 33.489437,197.87939 h -1.298111 v -2.05189 h 0.272851 v 1.80936 h 1.02526 z"
         id="path367" />
      <path
         d="m 35.060399,197.87939 h -1.298111 v -2.05189 h 0.272851 v 1.80936 h 1.02526 z"
         id="path369" />
      <path
         d="m 36.508716,197.87939 h -0.257693 v -0.16398 q -0.03445,0.0234 -0.09371,0.0661 -0.05788,0.0413 -0.112999,0.0661 -0.06477,0.0317 -0.148828,0.0524 -0.08406,0.022 -0.197059,0.022 -0.208084,0 -0.352778,-0.1378 -0.144693,-0.1378 -0.144693,-0.3514 0,-0.17501 0.07441,-0.2825 0.07579,-0.10886 0.214973,-0.17087 0.14056,-0.062 0.337619,-0.0841 0.19706,-0.022 0.423058,-0.0331 v -0.04 q 0,-0.0882 -0.0317,-0.14607 -0.03032,-0.0579 -0.08819,-0.0909 -0.05512,-0.0317 -0.132292,-0.0427 -0.07717,-0.011 -0.16123,-0.011 -0.101975,0 -0.227376,0.0276 -0.125402,0.0262 -0.259071,0.0772 h -0.01378 v -0.26321 q 0.07579,-0.0207 0.219108,-0.0455 0.143316,-0.0248 0.282498,-0.0248 0.162608,0 0.282497,0.0276 0.121268,0.0262 0.209462,0.0909 0.08682,0.0634 0.132292,0.16399 0.04548,0.10059 0.04548,0.24942 z m -0.257693,-0.37896 v -0.42857 q -0.118511,0.007 -0.279742,0.0207 -0.159852,0.0138 -0.253559,0.04 -0.111621,0.0317 -0.180522,0.0992 -0.0689,0.0661 -0.0689,0.18328 0,0.13229 0.07993,0.19981 0.07993,0.0661 0.243913,0.0661 0.136425,0 0.249424,-0.0524 0.112999,-0.0537 0.209462,-0.12816 z"
         id="path371" />
      <path
         d="m 37.806827,197.86561 q -0.07304,0.0193 -0.159853,0.0317 -0.08544,0.0124 -0.152962,0.0124 -0.235644,0 -0.358289,-0.12678 -0.122646,-0.12678 -0.122646,-0.40652 v -0.81855 h -0.17501 v -0.21773 h 0.17501 v -0.44235 h 0.259071 v 0.44235 h 0.534679 v 0.21773 h -0.534679 v 0.70142 q 0,0.12127 0.0055,0.19017 0.0055,0.0675 0.03859,0.12678 0.03032,0.0551 0.08268,0.0813 0.05374,0.0248 0.162608,0.0248 0.06339,0 0.132292,-0.0179 0.0689,-0.0193 0.09922,-0.0317 h 0.01378 z"
         id="path373" />
      <path
         d="m 39.2579,197.78293 q -0.129536,0.062 -0.246669,0.0965 -0.115755,0.0345 -0.246669,0.0345 -0.166742,0 -0.305924,-0.0482 -0.139182,-0.0496 -0.2384,-0.14882 -0.100597,-0.0992 -0.155718,-0.25081 -0.05512,-0.15158 -0.05512,-0.35415 0,-0.37758 0.206706,-0.59256 0.208083,-0.21497 0.548458,-0.21497 0.132292,0 0.259071,0.0372 0.128158,0.0372 0.234267,0.0909 v 0.28801 h -0.01378 q -0.118511,-0.0923 -0.24529,-0.14194 -0.125402,-0.0496 -0.245291,-0.0496 -0.220486,0 -0.348643,0.14883 -0.12678,0.14745 -0.12678,0.43408 0,0.27836 0.124024,0.42857 0.125401,0.14883 0.351399,0.14883 0.07855,0 0.159852,-0.0207 0.08131,-0.0207 0.146072,-0.0537 0.0565,-0.0289 0.106109,-0.0606 0.04961,-0.0331 0.07855,-0.0565 h 0.01378 z"
         id="path375" />
      <path
         d="m 40.877094,197.87939 h -0.259071 v -0.87643 q 0,-0.10611 -0.0124,-0.19843 -0.0124,-0.0937 -0.04548,-0.14608 -0.03445,-0.0579 -0.09922,-0.0854 -0.06477,-0.0289 -0.16812,-0.0289 -0.106109,0 -0.221864,0.0524 -0.115755,0.0524 -0.221864,0.13367 v 1.14928 h -0.259071 v -2.14422 h 0.259071 v 0.77583 q 0.121267,-0.10059 0.250803,-0.15709 0.129535,-0.0565 0.265961,-0.0565 0.249425,0 0.380338,0.1502 0.130914,0.15021 0.130914,0.43271 z"
         id="path377" />
    </g>
    <g
       aria-label="Smooth"
       transform="translate(0,168.49998)"
       id="text25970-9-5"
       style="font-size:3.52778px;line-height:1.25;-inkscape-font-specification:'sans-serif, Normal';display:inline;stroke-width:0.264583">
      <path
         d="m 5.4143137,101.5059 q 0,0.14986 -0.070625,0.29628 -0.068902,0.14642 -0.194648,0.24805 -0.1378039,0.11024 -0.3221167,0.17225 -0.1825902,0.062 -0.4409725,0.062 -0.2773303,0 -0.4995392,-0.0517 -0.2204862,-0.0517 -0.4495852,-0.15331 v -0.42719 h 0.024116 q 0.194648,0.16192 0.4495852,0.24977 0.2549373,0.0879 0.4788686,0.0879 0.316949,0 0.492649,-0.11886 0.1774225,-0.11886 0.1774225,-0.31695 0,-0.17053 -0.084405,-0.25149 -0.082682,-0.081 -0.2532147,-0.12575 -0.1291911,-0.0345 -0.2807754,-0.0568 -0.1498618,-0.0224 -0.3186716,-0.0568 -0.3410646,-0.0724 -0.5064293,-0.24633 -0.1636422,-0.1757 -0.1636422,-0.45647 0,-0.32212 0.2721628,-0.527104 0.2721627,-0.206706 0.690742,-0.206706 0.2704402,0 0.4960941,0.05168 0.2256539,0.05168 0.3996314,0.127469 v 0.403075 h -0.024116 q -0.1464167,-0.12402 -0.385851,-0.20498 -0.2377117,-0.08268 -0.4874813,-0.08268 -0.2738853,0 -0.4409725,0.113685 -0.1653647,0.11369 -0.1653647,0.29284 0,0.16019 0.082682,0.25149 0.082682,0.0913 0.2911108,0.13953 0.1102431,0.0241 0.3135039,0.0586 0.2032608,0.0345 0.3445098,0.0706 0.2859431,0.0758 0.4306372,0.2291 0.1446941,0.1533 0.1446941,0.42891 z"
         id="path354" />
      <path
         d="M 8.7440006,102.23798 H 8.4201614 v -1.09554 q 0,-0.12402 -0.012058,-0.23943 -0.010335,-0.11541 -0.046509,-0.18431 -0.039619,-0.0741 -0.1136882,-0.11197 -0.07407,-0.0379 -0.2135961,-0.0379 -0.1360814,0 -0.2721627,0.0689 -0.1360814,0.0672 -0.2721627,0.17225 0.00517,0.0396 0.00861,0.093 0.00345,0.0517 0.00345,0.10335 v 1.23162 H 7.1782037 v -1.09554 q 0,-0.12747 -0.012058,-0.24115 -0.010335,-0.11541 -0.046509,-0.18432 -0.039619,-0.0741 -0.1136883,-0.11024 -0.07407,-0.0379 -0.213596,-0.0379 -0.1326363,0 -0.2669951,0.0655 -0.1326363,0.0655 -0.2652725,0.16709 v 1.4366 H 5.936246 v -1.92408 h 0.3238392 v 0.21359 q 0.1515843,-0.12574 0.301446,-0.19637 0.1515843,-0.0706 0.3221167,-0.0706 0.1963705,0 0.3324519,0.0827 0.1378039,0.0827 0.2049833,0.2291 0.1963706,-0.16537 0.3582902,-0.23771 0.1619196,-0.0741 0.3462323,-0.0741 0.316949,0 0.4668107,0.19292 0.1515843,0.19121 0.1515843,0.53572 z"
         id="path356" />
      <path
         d="m 11.00743,101.2768 q 0,0.47026 -0.241157,0.74242 -0.241157,0.27216 -0.645956,0.27216 -0.4082437,0 -0.6494005,-0.27216 -0.2394343,-0.27216 -0.2394343,-0.74242 0,-0.47025 0.2394343,-0.74242 0.2411568,-0.27388 0.6494005,-0.27388 0.404799,0 0.645956,0.27388 0.241157,0.27217 0.241157,0.74242 z m -0.334174,0 q 0,-0.37379 -0.146417,-0.55466 -0.146417,-0.18259 -0.406522,-0.18259 -0.2635496,0 -0.4099662,0.18259 -0.1446941,0.18087 -0.1446941,0.55466 0,0.36174 0.1464166,0.54949 0.1464167,0.18604 0.4082437,0.18604 0.258383,0 0.404799,-0.18431 0.14814,-0.18604 0.14814,-0.55122 z"
         id="path358" />
      <path
         d="m 13.148558,101.2768 q 0,0.47026 -0.241157,0.74242 -0.241157,0.27216 -0.645956,0.27216 -0.408244,0 -0.6494,-0.27216 -0.239435,-0.27216 -0.239435,-0.74242 0,-0.47025 0.239435,-0.74242 0.241156,-0.27388 0.6494,-0.27388 0.404799,0 0.645956,0.27388 0.241157,0.27217 0.241157,0.74242 z m -0.334174,0 q 0,-0.37379 -0.146417,-0.55466 -0.146417,-0.18259 -0.406522,-0.18259 -0.26355,0 -0.409966,0.18259 -0.144694,0.18087 -0.144694,0.55466 0,0.36174 0.146416,0.54949 0.146417,0.18604 0.408244,0.18604 0.258383,0 0.404799,-0.18431 0.14814,-0.18604 0.14814,-0.55122 z"
         id="path360" />
      <path
         d="m 14.648898,102.22076 q -0.0913,0.0241 -0.199816,0.0396 -0.106798,0.0155 -0.191203,0.0155 -0.294555,0 -0.447862,-0.15847 -0.153307,-0.15848 -0.153307,-0.50816 v -1.02319 h -0.218764 v -0.27216 h 0.218764 v -0.552942 h 0.323839 v 0.552942 h 0.668349 v 0.27216 h -0.668349 v 0.87678 q 0,0.15158 0.0069,0.23771 0.0069,0.0844 0.04823,0.15847 0.0379,0.0689 0.103353,0.10163 0.06718,0.031 0.20326,0.031 0.07924,0 0.165365,-0.0224 0.08613,-0.0241 0.124024,-0.0396 h 0.01723 z"
         id="path362" />
      <path
         d="m 16.648778,102.23798 h -0.323839 v -1.09554 q 0,-0.13263 -0.0155,-0.24804 -0.0155,-0.11714 -0.05684,-0.18259 -0.04306,-0.0724 -0.124024,-0.1068 -0.08096,-0.0362 -0.210151,-0.0362 -0.132636,0 -0.27733,0.0655 -0.144694,0.0655 -0.277331,0.16709 v 1.4366 h -0.323839 v -2.680282 h 0.323839 v 0.969792 q 0.151585,-0.12574 0.313504,-0.19637 0.16192,-0.0706 0.332452,-0.0706 0.311782,0 0.475424,0.18776 0.163642,0.18775 0.163642,0.54088 z"
         id="path364" />
    </g>
    <g
       aria-label="Smear"
       transform="translate(0,168.49998)"
       id="text25970-9-9-7"
       style="font-size:3.52778px;line-height:1.25;-inkscape-font-specification:'sans-serif, Normal';display:inline;stroke-width:0.264583">
      <path
         d="m 20.760138,101.50634 q 0,0.14986 -0.07062,0.29628 -0.0689,0.14642 -0.194648,0.24805 -0.137804,0.11024 -0.322116,0.17225 -0.18259,0.062 -0.440973,0.062 -0.27733,0 -0.499539,-0.0517 -0.220486,-0.0517 -0.449585,-0.15331 v -0.42719 h 0.02412 q 0.194648,0.16192 0.449585,0.24977 0.254937,0.0879 0.478868,0.0879 0.316949,0 0.492649,-0.11886 0.177423,-0.11885 0.177423,-0.31695 0,-0.17053 -0.08441,-0.25149 -0.08268,-0.081 -0.253215,-0.12574 -0.129191,-0.0345 -0.280775,-0.0568 -0.149862,-0.0224 -0.318672,-0.0568 -0.341064,-0.0724 -0.506429,-0.24633 -0.163642,-0.1757 -0.163642,-0.45647 0,-0.32212 0.272162,-0.527102 0.272163,-0.206706 0.690743,-0.206706 0.27044,0 0.496094,0.05168 0.225654,0.05168 0.399631,0.127468 v 0.403073 h -0.02412 q -0.146416,-0.12402 -0.385851,-0.20498 -0.237711,-0.08268 -0.487481,-0.08268 -0.273885,0 -0.440972,0.113692 -0.165365,0.11368 -0.165365,0.29283 0,0.1602 0.08268,0.25149 0.08268,0.0913 0.291111,0.13953 0.110243,0.0241 0.313504,0.0586 0.203261,0.0345 0.34451,0.0706 0.285943,0.0758 0.430637,0.2291 0.144694,0.15331 0.144694,0.42891 z"
         id="path343" />
      <path
         d="m 24.089825,102.23843 h -0.323839 v -1.09554 q 0,-0.12403 -0.01206,-0.23944 -0.01033,-0.11541 -0.04651,-0.18431 -0.03962,-0.0741 -0.113688,-0.11197 -0.07407,-0.0379 -0.213596,-0.0379 -0.136082,0 -0.272163,0.0689 -0.136081,0.0672 -0.272163,0.17225 0.0052,0.0396 0.0086,0.093 0.0034,0.0517 0.0034,0.10335 v 1.23163 h -0.323839 v -1.09554 q 0,-0.12747 -0.01206,-0.24116 -0.01034,-0.11541 -0.04651,-0.18431 -0.03962,-0.0741 -0.113688,-0.11025 -0.07407,-0.0379 -0.213596,-0.0379 -0.132636,0 -0.266995,0.0654 -0.132636,0.0655 -0.265273,0.16709 v 1.43661 H 21.28207 v -1.92409 h 0.323839 v 0.2136 q 0.151585,-0.12575 0.301446,-0.19638 0.151585,-0.0706 0.322117,-0.0706 0.196371,0 0.332452,0.0827 0.137804,0.0827 0.204983,0.2291 0.196371,-0.16536 0.358291,-0.23771 0.161919,-0.0741 0.346232,-0.0741 0.316949,0 0.466811,0.19293 0.151584,0.1912 0.151584,0.53571 z"
         id="path345" />
      <path
         d="m 26.323971,101.30997 h -1.417658 q 0,0.17742 0.0534,0.31006 0.0534,0.13091 0.146417,0.21532 0.08957,0.0827 0.211873,0.12402 0.124024,0.0413 0.272163,0.0413 0.196371,0 0.394464,-0.0775 0.199816,-0.0792 0.28422,-0.15503 h 0.01723 v 0.35312 q -0.163642,0.0689 -0.334175,0.11541 -0.170532,0.0465 -0.35829,0.0465 -0.478868,0 -0.747586,-0.25838 -0.268718,-0.2601 -0.268718,-0.73725 0,-0.47198 0.25666,-0.74931 0.258383,-0.27733 0.678684,-0.27733 0.389297,0 0.599447,0.22738 0.211874,0.22737 0.211874,0.64595 z m -0.315226,-0.24804 q -0.0017,-0.25494 -0.129192,-0.39447 -0.125746,-0.13952 -0.384128,-0.13952 -0.260105,0 -0.415134,0.1533 -0.153307,0.15331 -0.173978,0.38069 z"
         id="path347" />
      <path
         d="m 28.310069,102.23843 h -0.322116 v -0.20499 q -0.04306,0.0293 -0.117134,0.0827 -0.07235,0.0517 -0.141249,0.0827 -0.08096,0.0396 -0.186035,0.0654 -0.105075,0.0276 -0.246324,0.0276 -0.260105,0 -0.440973,-0.17226 -0.180868,-0.17225 -0.180868,-0.43925 0,-0.21876 0.09302,-0.35312 0.09474,-0.13608 0.268718,-0.2136 0.1757,-0.0775 0.422024,-0.10507 0.246325,-0.0276 0.528823,-0.0413 v -0.05 q 0,-0.11024 -0.03962,-0.18259 -0.0379,-0.0724 -0.110243,-0.11369 -0.0689,-0.0396 -0.165365,-0.0534 -0.09646,-0.0138 -0.201538,-0.0138 -0.127469,0 -0.284221,0.0345 -0.156751,0.0327 -0.323839,0.0965 h -0.01722 v -0.32901 q 0.09474,-0.0258 0.273885,-0.0568 0.179145,-0.031 0.353123,-0.031 0.20326,0 0.353122,0.0344 0.151584,0.0327 0.261827,0.11369 0.108521,0.0792 0.165365,0.20498 0.05684,0.12575 0.05684,0.31178 z m -0.322116,-0.4737 v -0.53572 q -0.14814,0.009 -0.349678,0.0258 -0.199815,0.0172 -0.316949,0.0499 -0.139526,0.0396 -0.225654,0.12403 -0.08613,0.0827 -0.08613,0.2291 0,0.16536 0.09991,0.24977 0.09991,0.0827 0.304891,0.0827 0.170532,0 0.311781,-0.0655 0.141249,-0.0672 0.261828,-0.16019 z"
         id="path349" />
      <path
         d="m 30.134249,100.66746 h -0.01723 q -0.07235,-0.0172 -0.141249,-0.0241 -0.06718,-0.009 -0.160197,-0.009 -0.149862,0 -0.289388,0.0672 -0.139526,0.0655 -0.268718,0.17053 v 1.36599 h -0.323839 v -1.92409 h 0.323839 v 0.28422 q 0.192926,-0.15503 0.339343,-0.21876 0.148139,-0.0655 0.301446,-0.0655 0.0844,0 0.122301,0.005 0.0379,0.003 0.113688,0.0155 z"
         id="path351" />
    </g>
    <g
       aria-label="Drive"
       transform="translate(0,168.49998)"
       id="text25970-9-0-1"
       style="font-size:3.52778px;line-height:1.25;-inkscape-font-specification:'sans-serif, Normal';display:inline;stroke-width:0.264583">
      <path
         d="m 34.821657,100.95813 q 0,0.34968 -0.153307,0.6339 -0.151584,0.28422 -0.404799,0.44097 -0.1757,0.10852 -0.392741,0.15675 -0.215319,0.0482 -0.568441,0.0482 H 32.65469 v -2.564872 h 0.640789 q 0.375515,0 0.596002,0.05512 0.222208,0.0534 0.375515,0.148139 0.261828,0.163641 0.408244,0.435801 0.146417,0.27217 0.146417,0.64596 z m -0.356568,-0.005 q 0,-0.30144 -0.105075,-0.50815 -0.105076,-0.20671 -0.313504,-0.32556 -0.151584,-0.0861 -0.322117,-0.11886 -0.170532,-0.03445 -0.408244,-0.03445 h -0.320394 v 1.979208 h 0.320394 q 0.246325,0 0.428915,-0.0362 0.184313,-0.0362 0.337619,-0.13436 0.191203,-0.1223 0.285944,-0.32212 0.09646,-0.19981 0.09646,-0.49954 z"
         id="path332" />
      <path
         d="m 36.547651,100.66702 h -0.01723 q -0.07235,-0.0172 -0.141249,-0.0241 -0.06718,-0.009 -0.160197,-0.009 -0.149861,0 -0.289388,0.0672 -0.139526,0.0655 -0.268718,0.17053 v 1.36598 h -0.323839 v -1.92408 h 0.323839 v 0.28422 q 0.192926,-0.15503 0.339343,-0.21877 0.148139,-0.0654 0.301446,-0.0654 0.08441,0 0.122301,0.005 0.0379,0.003 0.113688,0.0155 z"
         id="path334" />
      <path
         d="m 37.200497,99.99178 h -0.36518 v -0.335897 h 0.36518 z m -0.02067,2.2462 h -0.32384 v -1.92408 h 0.32384 z"
         id="path336" />
      <path
         d="m 39.484597,100.3139 -0.778592,1.92408 h -0.325562 l -0.773424,-1.92408 h 0.3514 l 0.596001,1.53134 0.590835,-1.53134 z"
         id="path338" />
      <path
         d="m 41.487921,101.30953 h -1.417658 q 0,0.17742 0.0534,0.31006 0.0534,0.13091 0.146417,0.21532 0.08957,0.0827 0.211873,0.12402 0.124024,0.0413 0.272163,0.0413 0.196371,0 0.394464,-0.0775 0.199815,-0.0792 0.28422,-0.15503 h 0.01723 v 0.35312 q -0.163642,0.0689 -0.334175,0.11541 -0.170532,0.0465 -0.35829,0.0465 -0.478868,0 -0.747586,-0.25838 -0.268718,-0.26011 -0.268718,-0.73725 0,-0.47198 0.25666,-0.74931 0.258383,-0.27733 0.678684,-0.27733 0.389296,0 0.599447,0.22737 0.211874,0.22738 0.211874,0.64596 z m -0.315226,-0.24805 q -0.0017,-0.25493 -0.129192,-0.39446 -0.125746,-0.13953 -0.384128,-0.13953 -0.260105,0 -0.415134,0.15331 -0.153307,0.15331 -0.173978,0.38068 z"
         id="path340" />
    </g>
    <g
       aria-label="Crush"
       transform="translate(0,168.49998)"
       id="text25970-9-0-0-2"
       style="font-size:3.52778px;line-height:1.25;-inkscape-font-specification:'sans-serif, Normal';display:inline;stroke-width:0.264583">
      <path
         d="m 47.335634,102.05195 q -0.09474,0.0413 -0.172255,0.0775 -0.07579,0.0362 -0.199816,0.0758 -0.105075,0.0327 -0.229099,0.0551 -0.122301,0.0241 -0.27044,0.0241 -0.279053,0 -0.508152,-0.0775 -0.227376,-0.0792 -0.396186,-0.24633 -0.165365,-0.16364 -0.258382,-0.41513 -0.09302,-0.25322 -0.09302,-0.58739 0,-0.31695 0.08957,-0.56672 0.08957,-0.24977 0.258382,-0.422023 0.163642,-0.167087 0.394464,-0.254937 0.232544,-0.08785 0.515042,-0.08785 0.206706,0 0.411689,0.04995 0.206706,0.04995 0.458198,0.1757 v 0.404796 h -0.02584 q -0.211874,-0.17742 -0.420302,-0.25838 -0.208429,-0.08096 -0.44614,-0.08096 -0.194649,0 -0.3514,0.06373 -0.15503,0.06202 -0.277331,0.194645 -0.118856,0.12919 -0.186035,0.32729 -0.06546,0.19637 -0.06546,0.45475 0,0.27044 0.07235,0.46509 0.07407,0.19465 0.18948,0.31695 0.120579,0.12747 0.280776,0.18948 0.16192,0.0603 0.341065,0.0603 0.246324,0 0.461643,-0.0844 0.215318,-0.0844 0.403076,-0.25321 h 0.02412 z"
         id="path321" />
      <path
         d="M 48.992726,100.66702 H 48.9755 q -0.07235,-0.0172 -0.141249,-0.0241 -0.06718,-0.009 -0.160197,-0.009 -0.149861,0 -0.289388,0.0672 -0.139526,0.0655 -0.268717,0.17053 v 1.36598 h -0.32384 v -1.92408 h 0.32384 v 0.28422 q 0.192925,-0.15503 0.339342,-0.21877 0.148139,-0.0654 0.301446,-0.0654 0.0844,0 0.122301,0.005 0.0379,0.003 0.113688,0.0155 z"
         id="path323" />
      <path
         d="m 50.892697,102.23798 h -0.323839 v -0.21359 q -0.163642,0.12919 -0.313504,0.19809 -0.149862,0.0689 -0.330729,0.0689 -0.303169,0 -0.471979,-0.18431 -0.168809,-0.18604 -0.168809,-0.54433 v -1.24884 h 0.323839 v 1.09554 q 0,0.14641 0.01378,0.25149 0.01378,0.10335 0.05857,0.17742 0.04651,0.0758 0.120578,0.11025 0.07407,0.0345 0.215319,0.0345 0.125746,0 0.273885,-0.0655 0.149862,-0.0655 0.279053,-0.16709 v -1.4366 h 0.323839 z"
         id="path325" />
      <path
         d="m 52.904634,101.68332 q 0,0.26355 -0.218764,0.43236 -0.217041,0.16881 -0.594279,0.16881 -0.213596,0 -0.392741,-0.05 -0.177423,-0.0517 -0.298001,-0.11197 v -0.36345 h 0.01722 q 0.153307,0.11541 0.341065,0.18431 0.187758,0.0672 0.360013,0.0672 0.213596,0 0.334174,-0.0689 0.120579,-0.0689 0.120579,-0.21705 0,-0.11368 -0.06546,-0.17225 -0.06546,-0.0586 -0.251492,-0.0999 -0.0689,-0.0155 -0.180868,-0.0362 -0.110243,-0.0207 -0.201538,-0.0448 -0.253215,-0.0672 -0.360013,-0.19637 -0.105075,-0.13091 -0.105075,-0.32039 0,-0.11886 0.04823,-0.22393 0.04995,-0.10508 0.149862,-0.18776 0.09646,-0.081 0.244602,-0.12747 0.149861,-0.0482 0.334174,-0.0482 0.172255,0 0.347955,0.0431 0.177423,0.0413 0.294556,0.10163 v 0.34623 h -0.01723 q -0.124023,-0.0913 -0.301446,-0.1533 -0.177422,-0.0637 -0.347954,-0.0637 -0.177423,0 -0.299724,0.0689 -0.122301,0.0672 -0.122301,0.20153 0,0.11886 0.07407,0.17915 0.07235,0.0603 0.234266,0.0982 0.08957,0.0207 0.199816,0.0413 0.111966,0.0207 0.186035,0.0379 0.225654,0.0517 0.347955,0.17742 0.122301,0.12747 0.122301,0.33762 z"
         id="path327" />
      <path
         d="m 54.976861,102.23798 h -0.323839 v -1.09554 q 0,-0.13263 -0.0155,-0.24804 -0.0155,-0.11714 -0.05684,-0.18259 -0.04306,-0.0724 -0.124024,-0.1068 -0.08096,-0.0362 -0.210151,-0.0362 -0.132636,0 -0.27733,0.0655 -0.144694,0.0655 -0.27733,0.16709 v 1.4366 H 53.368 v -2.680282 h 0.32384 v 0.969792 q 0.151584,-0.12574 0.313503,-0.19637 0.16192,-0.0706 0.332452,-0.0706 0.311782,0 0.475424,0.18776 0.163642,0.18775 0.163642,0.54088 z"
         id="path329" />
    </g>
    <g
       aria-label="TLatch"
       transform="translate(0,168.49998)"
       id="text25970-9-4-6-0-3"
       style="font-size:2.82222px;line-height:1.25;-inkscape-font-specification:'sans-serif, Normal';display:inline;stroke-width:0.264583">
      <path
         d="m 46.88398,27.570051 h -0.733115 v 1.809363 h -0.272852 v -1.809363 h -0.733116 v -0.242535 h 1.739083 z"
         id="path308" />
      <path
         d="m 48.457699,29.379414 h -1.298111 v -2.051898 h 0.272851 v 1.809363 h 1.02526 z"
         id="path310" />
      <path
         d="m 49.906016,29.379414 h -0.257693 v -0.163987 q -0.03445,0.02343 -0.09371,0.06615 -0.05788,0.04134 -0.112999,0.06615 -0.06477,0.03169 -0.148828,0.05236 -0.08406,0.02205 -0.197059,0.02205 -0.208084,0 -0.352778,-0.137804 -0.144693,-0.137804 -0.144693,-0.351399 0,-0.175011 0.07441,-0.282498 0.07579,-0.108865 0.214973,-0.170877 0.14056,-0.06201 0.337619,-0.08406 0.19706,-0.02205 0.423058,-0.03307 v -0.03996 q 0,-0.08819 -0.03169,-0.146072 -0.03032,-0.05788 -0.08819,-0.09095 -0.05512,-0.03169 -0.132292,-0.04272 -0.07717,-0.01103 -0.16123,-0.01103 -0.101975,0 -0.227376,0.02756 -0.125402,0.02618 -0.259071,0.07717 h -0.01378 v -0.263205 q 0.07579,-0.02067 0.219108,-0.04547 0.143316,-0.02481 0.282498,-0.02481 0.162608,0 0.282497,0.02756 0.121268,0.02618 0.209462,0.09095 0.08682,0.06339 0.132292,0.163987 0.04548,0.100596 0.04548,0.249424 z m -0.257693,-0.378961 v -0.428569 q -0.118511,0.0069 -0.279742,0.02067 -0.159852,0.01378 -0.253559,0.03996 -0.111621,0.03169 -0.180522,0.09922 -0.0689,0.06615 -0.0689,0.183279 0,0.132292 0.07993,0.199815 0.07993,0.06615 0.243913,0.06615 0.136425,0 0.249424,-0.05237 0.112999,-0.05374 0.209462,-0.128158 z"
         id="path312" />
      <path
         d="m 51.204127,29.365633 q -0.07304,0.01929 -0.159852,0.0317 -0.08544,0.0124 -0.152962,0.0124 -0.235645,0 -0.35829,-0.126779 -0.122645,-0.126779 -0.122645,-0.406521 v -0.818554 h -0.175011 v -0.21773 h 0.175011 v -0.44235 h 0.259071 v 0.44235 h 0.534678 v 0.21773 h -0.534678 v 0.701421 q 0,0.121267 0.0055,0.190169 0.0055,0.06752 0.03858,0.126779 0.03032,0.05512 0.08268,0.08131 0.05374,0.0248 0.162608,0.0248 0.06339,0 0.132292,-0.01791 0.0689,-0.01929 0.09922,-0.03169 h 0.01378 z"
         id="path314" />
      <path
         d="m 52.6552,29.282951 q -0.129536,0.06201 -0.246669,0.09646 -0.115755,0.03445 -0.246668,0.03445 -0.166743,0 -0.305925,-0.04823 -0.139181,-0.04961 -0.2384,-0.148828 -0.100597,-0.09922 -0.155718,-0.250803 -0.05512,-0.151584 -0.05512,-0.354155 0,-0.377582 0.206706,-0.592556 0.208083,-0.214974 0.548459,-0.214974 0.132291,0 0.259071,0.03721 0.128157,0.03721 0.234266,0.09095 v 0.288009 h -0.01378 q -0.118512,-0.09233 -0.245291,-0.141937 -0.125401,-0.04961 -0.245291,-0.04961 -0.220486,0 -0.348643,0.148828 -0.126779,0.14745 -0.126779,0.434082 0,0.278363 0.124023,0.428569 0.125401,0.148828 0.351399,0.148828 0.07855,0 0.159853,-0.02067 0.0813,-0.02067 0.146072,-0.05374 0.0565,-0.02894 0.106108,-0.06063 0.04961,-0.03307 0.07855,-0.0565 h 0.01378 z"
         id="path316" />
      <path
         d="m 54.274393,29.379414 h -0.259071 v -0.876432 q 0,-0.106109 -0.0124,-0.198437 -0.0124,-0.09371 -0.04548,-0.146072 -0.03445,-0.05788 -0.09922,-0.08544 -0.06477,-0.02894 -0.16812,-0.02894 -0.106109,0 -0.221864,0.05237 -0.115755,0.05236 -0.221864,0.13367 v 1.149283 h -0.259071 v -2.144226 h 0.259071 v 0.775835 q 0.121267,-0.100597 0.250803,-0.157097 0.129535,-0.0565 0.265961,-0.0565 0.249424,0 0.380338,0.150206 0.130913,0.150206 0.130913,0.432704 z"
         id="path318" />
    </g>
  </g>
  <g
     inkscape:groupmode="layer"
     id="layer2"
     inkscape:label="components"
     style="display:none">
    <circle
       style="display:inline;opacity:1;vector-effect:none;fill:#ff0000;fill-opacity:1;fill-rule:evenodd;stroke:none;stroke-width:1;stroke-linecap:butt;stroke-linejoin:miter;stroke-miterlimit:4;stroke-dasharray:none;stroke-dashoffset:0;stroke-opacity:1;paint-order:normal"
       id="path4954"
       cx="10.477504"
       cy="75.696625"
       r="4"
       inkscape:label="time" />
    <circle
       style="display:inline;vector-effect:none;fill:#ff0000;fill-opacity:1;fill-rule:evenodd;stroke:none;stroke-width:1;stroke-linecap:butt;stroke-linejoin:miter;stroke-miterlimit:4;stroke-dasharray:none;stroke-dashoffset:0;stroke-opacity:1;paint-order:normal"
       id="path4954-0"
       cx="36.935852"
       cy="75.696625"
       r="4"
       inkscape:label="time_drift" />
    <circle
       style="display:inline;vector-effect:none;fill:#ff0000;fill-opacity:1;fill-rule:evenodd;stroke:none;stroke-width:1;stroke-linecap:butt;stroke-linejoin:miter;stroke-miterlimit:4;stroke-dasharray:none;stroke-dashoffset:0;stroke-opacity:1;paint-order:normal"
       id="path4954-0-7"
       cx="50.165031"
       cy="75.696625"
       r="4"
       inkscape:label="time_latch" />
    <circle
       style="display:inline;vector-effect:none;fill:#ff0000;fill-opacity:1;fill-rule:evenodd;stroke:none;stroke-width:1;stroke-linecap:butt;stroke-linejoin:miter;stroke-miterlimit:4;stroke-dasharray:none;stroke-dashoffset:0;stroke-opacity:1;paint-order:normal"
       id="path4954-0-7-5"
       cx="50.165031"
       cy="58.234108"
       r="4"
       inkscape:label="loop_latch" />
    <circle
       style="display:inline;vector-effect:none;fill:#ff0000;fill-opacity:1;fill-rule:evenodd;stroke:none;stroke-width:1;stroke-linecap:butt;stroke-linejoin:miter;stroke-miterlimit:4;stroke-dasharray:none;stroke-dashoffset:0;stroke-opacity:1;paint-order:normal"
       id="path4954-5"
       cx="10.477504"
       cy="58.234108"
       r="4"
       inkscape:label="dry" />
    <circle
       style="display:inline;vector-effect:none;fill:#ff0000;fill-opacity:1;fill-rule:evenodd;stroke:none;stroke-width:1;stroke-linecap:butt;stroke-linejoin:miter;stroke-miterlimit:4;stroke-dasharray:none;stroke-dashoffset:0;stroke-opacity:1;paint-order:normal"
       id="path4954-5-8"
       cx="18.944168"
       cy="42.359093"
       r="4"
       inkscape:label="buffer" />
    <circle
       style="display:inline;vector-effect:none;fill:#ff0000;fill-opacity:1;fill-rule:evenodd;stroke:none;stroke-width:1;stroke-linecap:butt;stroke-linejoin:miter;stroke-miterlimit:4;stroke-dasharray:none;stroke-dashoffset:0;stroke-opacity:1;paint-order:normal"
       id="path4954-5-8-1"
       cx="41.169189"
       cy="42.359093"
       r="4"
       inkscape:label="direction" />
    <circle
       style="display:inline;vector-effect:none;fill:#ff0000;fill-opacity:1;fill-rule:evenodd;stroke:none;stroke-width:1;stroke-linecap:butt;stroke-linejoin:miter;stroke-miterlimit:4;stroke-dasharray:none;stroke-dashoffset:0;stroke-opacity:1;paint-order:normal"
       id="path4954-5-4"
       cx="23.706673"
       cy="58.234108"
       r="4"
       inkscape:label="wet" />
    <circle
       style="display:inline;vector-effect:none;fill:#ff0000;fill-opacity:1;fill-rule:evenodd;stroke:none;stroke-width:1;stroke-linecap:butt;stroke-linejoin:miter;stroke-miterlimit:4;stroke-dasharray:none;stroke-dashoffset:0;stroke-opacity:1;paint-order:normal"
       id="path4954-6"
       cx="23.706673"
       cy="75.696625"
       r="4"
       inkscape:label="feedback" />
    <circle
       style="display:inline;vector-effect:none;fill:#ff0000;fill-opacity:1;fill-rule:evenodd;stroke:none;stroke-width:1;stroke-linecap:butt;stroke-linejoin:miter;stroke-miterlimit:4;stroke-dasharray:none;stroke-dashoffset:0;stroke-opacity:1;paint-order:normal"
       id="path4954-3"
       cx="10.477504"
       cy="93.159142"
       r="4"
       inkscape:label="smooth" />
    <circle
       style="display:inline;vector-effect:none;fill:#ff0000;fill-opacity:1;fill-rule:evenodd;stroke:none;stroke-width:1;stroke-linecap:butt;stroke-linejoin:miter;stroke-miterlimit:4;stroke-dasharray:none;stroke-dashoffset:0;stroke-opacity:1;paint-order:normal"
       id="path4954-0-2"
       cx="36.935852"
       cy="93.159142"
       r="4"
       inkscape:label="drive" />
    <circle
       style="display:inline;vector-effect:none;fill:#ff0000;fill-opacity:1;fill-rule:evenodd;stroke:none;stroke-width:1;stroke-linecap:butt;stroke-linejoin:miter;stroke-miterlimit:4;stroke-dasharray:none;stroke-dashoffset:0;stroke-opacity:1;paint-order:normal"
       id="path4954-0-7-2"
       cx="50.165031"
       cy="93.159142"
       r="4"
       inkscape:label="crush" />
    <circle
       style="display:inline;vector-effect:none;fill:#ff0000;fill-opacity:1;fill-rule:evenodd;stroke:none;stroke-width:1;stroke-linecap:butt;stroke-linejoin:miter;stroke-miterlimit:4;stroke-dasharray:none;stroke-dashoffset:0;stroke-opacity:1;paint-order:normal"
       id="path4954-6-6"
       cx="23.706673"
       cy="93.159142"
       r="4"
       inkscape:label="smear" />
    <circle
       style="display:inline;vector-effect:none;fill:#ff0000;fill-opacity:1;fill-rule:evenodd;stroke:none;stroke-width:1;stroke-linecap:butt;stroke-linejoin:miter;stroke-miterlimit:4;stroke-dasharray:none;stroke-dashoffset:0;stroke-opacity:1;paint-order:normal"
       id="path4954-6-1"
       cx="36.935852"
       cy="58.234108"
       r="4"
       inkscape:label="sensitivity" />
    <circle
       r="4"
       cy="111.8876"
       cx="39.581688"
       id="circle4956"
       style="display:inline;opacity:1;vector-effect:none;fill:#00ff00;fill-opacity:1;fill-rule:evenodd;stroke:none;stroke-width:1;stroke-linecap:butt;stroke-linejoin:miter;stroke-miterlimit:4;stroke-dasharray:none;stroke-dashoffset:0;stroke-opacity:1;paint-order:normal"
       inkscape:label="input" />
    <circle
       style="display:inline;opacity:1;vector-effect:none;fill:#0000ff;fill-opacity:1;fill-rule:evenodd;stroke:none;stroke-width:1;stroke-linecap:butt;stroke-linejoin:miter;stroke-miterlimit:4;stroke-dasharray:none;stroke-dashoffset:0;stroke-opacity:1;paint-order:normal"
       id="circle4958"
       cx="51.752533"
       cy="111.8876"
       r="4"
       inkscape:label="output" />
    <circle
       inkscape:label="loop"
       r="4"
       cy="21.192406"
       cx="9.9483376"
       id="circle66"
       style="display:inline;opacity:1;vector-effect:none;fill:#ff00ff;fill-opacity:1;fill-rule:evenodd;stroke:none;stroke-width:1;stroke-linecap:butt;stroke-linejoin:miter;stroke-miterlimit:4;stroke-dasharray:none;stroke-dashoffset:0;stroke-opacity:1;paint-order:normal" />
    <circle
       inkscape:label="trigger"
       r="4"
       cy="21.192406"
       cx="23.177505"
       id="circle66-9"
       style="display:inline;vector-effect:none;fill:#ff00ff;fill-opacity:1;fill-rule:evenodd;stroke:none;stroke-width:1;stroke-linecap:butt;stroke-linejoin:miter;stroke-miterlimit:4;stroke-dasharray:none;stroke-dashoffset:0;stroke-opacity:1;paint-order:normal" />
    <circle
       inkscape:label="llatch"
       r="4"
       cy="21.192406"
       cx="36.406685"
       id="circle66-9-0"
       style="display:inline;vector-effect:none;fill:#ff00ff;fill-opacity:1;fill-rule:evenodd;stroke:none;stroke-width:1;stroke-linecap:butt;stroke-linejoin:miter;stroke-miterlimit:4;stroke-dasharray:none;stroke-dashoffset:0;stroke-opacity:1;paint-order:normal" />
    <circle
       inkscape:label="tlatch"
       r="4"
       cy="21.192406"
       cx="49.635864"
       id="circle66-9-0-7"
       style="display:inline;vector-effect:none;fill:#ff00ff;fill-opacity:1;fill-rule:evenodd;stroke:none;stroke-width:1;stroke-linecap:butt;stroke-linejoin:miter;stroke-miterlimit:4;stroke-dasharray:none;stroke-dashoffset:0;stroke-opacity:1;paint-order:normal" />
  </g>
</svg>
